<?xml version="1.0" encoding="utf-8"?>
<!-- Generator: Adobe Illustrator 18.0.0, SVG Export Plug-In . SVG Version: 6.00 Build 0)  -->
<!DOCTYPE svg PUBLIC "-//W3C//DTD SVG 1.0//EN" "http://www.w3.org/TR/2001/REC-SVG-20010904/DTD/svg10.dtd">
<svg version="1.0" id="Layer_1" xmlns="http://www.w3.org/2000/svg" xmlns:xlink="http://www.w3.org/1999/xlink" x="0px" y="0px"
	 viewBox="0 0 604.4 417" enable-background="new 0 0 604.4 417" xml:space="preserve">
<line fill="none" stroke="#4472C4" stroke-width="3" stroke-miterlimit="8" x1="150" y1="79.3" x2="384.4" y2="368.4"/>
<line fill="none" stroke="#4472C4" stroke-width="3" stroke-miterlimit="8" x1="384.3" y1="369.5" x2="572.9" y2="366.6"/>
<line fill="none" stroke="#4472C4" stroke-width="3" stroke-miterlimit="8" x1="573" y1="366.5" x2="573" y2="79.3"/>
<line fill="none" stroke="#4472C4" stroke-width="3" stroke-miterlimit="8" x1="573" y1="79.3" x2="150" y2="78.4"/>
<line fill="none" stroke="#4472C4" stroke-width="3" stroke-miterlimit="8" x1="227" y1="176" x2="572.8" y2="176"/>
<line fill="none" stroke="#4472C4" stroke-width="3" stroke-miterlimit="8" x1="305.9" y1="271.8" x2="572.6" y2="271.8"/>
<line fill="none" stroke="#4472C4" stroke-width="3" stroke-miterlimit="8" x1="298.4" y1="79.3" x2="507.4" y2="334.2"/>
<line fill="none" stroke="#4472C4" stroke-width="3" stroke-miterlimit="8" x1="507.3" y1="334.2" x2="507.3" y2="78.4"/>
<g>
	<defs>
		<polygon id="SVGID_1_" points="197.2,89.9 239.9,89.9 239.9,117.6 197.2,117.6 197.2,89.9 		"/>
	</defs>
	<clipPath id="SVGID_2_">
		<use xlink:href="#SVGID_1_"  overflow="visible"/>
	</clipPath>
	<g clip-path="url(#SVGID_2_)">
		<defs>
			<rect id="SVGID_3_" x="197.2" y="89.9" width="42.7" height="27.7"/>
		</defs>
		<clipPath id="SVGID_4_">
			<use xlink:href="#SVGID_3_"  overflow="visible"/>
		</clipPath>
		<g clip-path="url(#SVGID_4_)">
			<text transform="matrix(1 0 0 1 215.0587 114.2915)" font-family="'Calibri'" font-size="25.8213">i</text>
		</g>
	</g>
	<g clip-path="url(#SVGID_2_)">
		<defs>
			<rect id="SVGID_5_" x="197.2" y="89.9" width="42.7" height="27.7"/>
		</defs>
		<clipPath id="SVGID_6_">
			<use xlink:href="#SVGID_5_"  overflow="visible"/>
		</clipPath>
		<g clip-path="url(#SVGID_6_)">
			<text transform="matrix(1 0 0 1 221.1662 114.2915)" font-family="'Calibri'" font-size="25.8213"> </text>
		</g>
	</g>
</g>
<g>
	<defs>
		<polygon id="SVGID_7_" points="225.4,126.5 268.1,126.5 268.1,154.2 225.4,154.2 225.4,126.5 		"/>
	</defs>
	<clipPath id="SVGID_8_">
		<use xlink:href="#SVGID_7_"  overflow="visible"/>
	</clipPath>
	<g clip-path="url(#SVGID_8_)">
		<defs>
			<rect id="SVGID_9_" x="225.4" y="126.5" width="42.7" height="27.7"/>
		</defs>
		<clipPath id="SVGID_10_">
			<use xlink:href="#SVGID_9_"  overflow="visible"/>
		</clipPath>
		<g clip-path="url(#SVGID_10_)">
			<text transform="matrix(1 0 0 1 242.2931 150.9145)" font-family="'Calibri'" font-size="25.8213">ɪ</text>
		</g>
	</g>
	<g clip-path="url(#SVGID_8_)">
		<defs>
			<rect id="SVGID_11_" x="225.4" y="126.5" width="42.7" height="27.7"/>
		</defs>
		<clipPath id="SVGID_12_">
			<use xlink:href="#SVGID_11_"  overflow="visible"/>
		</clipPath>
		<g clip-path="url(#SVGID_12_)">
			<text transform="matrix(1 0 0 1 242.2931 184.7133)" font-family="'Calibri'" font-size="25.8213">ɪ</text>
		</g>
	</g>
	<g clip-path="url(#SVGID_8_)">
		<defs>
			<rect id="SVGID_13_" x="225.4" y="126.5" width="42.7" height="27.7"/>
		</defs>
		<clipPath id="SVGID_14_">
			<use xlink:href="#SVGID_13_"  overflow="visible"/>
		</clipPath>
		<g clip-path="url(#SVGID_14_)">
			<text transform="matrix(1 0 0 1 250.2697 184.7133)" font-family="'Calibri'" font-size="25.8213"> </text>
		</g>
	</g>
</g>
<g>
	<defs>
		<polygon id="SVGID_15_" points="274.7,188 317.4,188 317.4,215.2 274.7,215.2 274.7,188 		"/>
	</defs>
	<clipPath id="SVGID_16_">
		<use xlink:href="#SVGID_15_"  overflow="visible"/>
	</clipPath>
	<g clip-path="url(#SVGID_16_)">
		<defs>
			<rect id="SVGID_17_" x="274.7" y="188" width="42.7" height="27.2"/>
		</defs>
		<clipPath id="SVGID_18_">
			<use xlink:href="#SVGID_17_"  overflow="visible"/>
		</clipPath>
		<g clip-path="url(#SVGID_18_)">
			<text transform="matrix(1 0 0 1 291.588 212.4243)" font-family="'Calibri'" font-size="25.8213">e</text>
		</g>
	</g>
	<g clip-path="url(#SVGID_16_)">
		<defs>
			<rect id="SVGID_19_" x="274.7" y="188" width="42.7" height="27.2"/>
		</defs>
		<clipPath id="SVGID_20_">
			<use xlink:href="#SVGID_19_"  overflow="visible"/>
		</clipPath>
		<g clip-path="url(#SVGID_20_)">
			<text transform="matrix(1 0 0 1 304.2599 212.4243)" font-family="'Calibri'" font-size="25.8213"> </text>
		</g>
	</g>
</g>
<g>
	<defs>
		<polygon id="SVGID_21_" points="419.3,188.5 462,188.5 462,216.2 419.3,216.2 419.3,188.5 		"/>
	</defs>
	<clipPath id="SVGID_22_">
		<use xlink:href="#SVGID_21_"  overflow="visible"/>
	</clipPath>
	<g clip-path="url(#SVGID_22_)">
		<defs>
			<rect id="SVGID_23_" x="419.3" y="188.5" width="42.7" height="27.7"/>
		</defs>
		<clipPath id="SVGID_24_">
			<use xlink:href="#SVGID_23_"  overflow="visible"/>
		</clipPath>
		<g clip-path="url(#SVGID_24_)">
			<text transform="matrix(1 0 0 1 436.1916 212.8813)" font-family="'Calibri'" font-size="25.8213">ʌ</text>
		</g>
	</g>
	<g clip-path="url(#SVGID_22_)">
		<defs>
			<rect id="SVGID_25_" x="419.3" y="188.5" width="42.7" height="27.7"/>
		</defs>
		<clipPath id="SVGID_26_">
			<use xlink:href="#SVGID_25_"  overflow="visible"/>
		</clipPath>
		<g clip-path="url(#SVGID_26_)">
			<text transform="matrix(1 0 0 1 447.9279 212.8813)" font-family="'Calibri'" font-size="25.8213"> </text>
		</g>
	</g>
</g>
<g>
	<defs>
		<polygon id="SVGID_27_" points="457.8,188.5 500,188.5 500,216.2 457.8,216.2 457.8,188.5 		"/>
	</defs>
	<clipPath id="SVGID_28_">
		<use xlink:href="#SVGID_27_"  overflow="visible"/>
	</clipPath>
	<g clip-path="url(#SVGID_28_)">
		<defs>
			<rect id="SVGID_29_" x="457.8" y="188.5" width="42.3" height="27.7"/>
		</defs>
		<clipPath id="SVGID_30_">
			<use xlink:href="#SVGID_29_"  overflow="visible"/>
		</clipPath>
		<g clip-path="url(#SVGID_30_)">
			<text transform="matrix(1 0 0 1 474.2267 212.8813)" font-family="'Calibri'" font-size="25.8213">ə</text>
		</g>
	</g>
	<g clip-path="url(#SVGID_28_)">
		<defs>
			<rect id="SVGID_31_" x="457.8" y="188.5" width="42.3" height="27.7"/>
		</defs>
		<clipPath id="SVGID_32_">
			<use xlink:href="#SVGID_31_"  overflow="visible"/>
		</clipPath>
		<g clip-path="url(#SVGID_32_)">
			<text transform="matrix(1 0 0 1 486.8791 212.8813)" font-family="'Calibri'" font-size="25.8213"> </text>
		</g>
	</g>
</g>
<g>
	<defs>
		<polygon id="SVGID_33_" points="378.9,124.2 421.6,124.2 421.6,151.9 378.9,151.9 378.9,124.2 		"/>
	</defs>
	<clipPath id="SVGID_34_">
		<use xlink:href="#SVGID_33_"  overflow="visible"/>
	</clipPath>
	<g clip-path="url(#SVGID_34_)">
		<defs>
			<rect id="SVGID_35_" x="378.9" y="124.2" width="42.7" height="27.7"/>
		</defs>
		<clipPath id="SVGID_36_">
			<use xlink:href="#SVGID_35_"  overflow="visible"/>
		</clipPath>
		<g clip-path="url(#SVGID_36_)">
			<text transform="matrix(1 0 0 1 395.8087 148.5669)" font-family="'Calibri'" font-size="25.8213">ɝ</text>
		</g>
	</g>
	<g clip-path="url(#SVGID_34_)">
		<defs>
			<rect id="SVGID_37_" x="378.9" y="124.2" width="42.7" height="27.7"/>
		</defs>
		<clipPath id="SVGID_38_">
			<use xlink:href="#SVGID_37_"  overflow="visible"/>
		</clipPath>
		<g clip-path="url(#SVGID_38_)">
			<text transform="matrix(1 0 0 1 409.4337 148.5669)" font-family="'Calibri'" font-size="25.8213"> </text>
		</g>
	</g>
</g>
<g>
	<defs>
		<polygon id="SVGID_39_" points="431,123.7 473.3,123.7 473.3,151.4 431,151.4 431,123.7 		"/>
	</defs>
	<clipPath id="SVGID_40_">
		<use xlink:href="#SVGID_39_"  overflow="visible"/>
	</clipPath>
	<g clip-path="url(#SVGID_40_)">
		<defs>
			<rect id="SVGID_41_" x="431" y="123.7" width="42.3" height="27.7"/>
		</defs>
		<clipPath id="SVGID_42_">
			<use xlink:href="#SVGID_41_"  overflow="visible"/>
		</clipPath>
		<g clip-path="url(#SVGID_42_)">
			<text transform="matrix(1 0 0 1 447.9279 148.1079)" font-family="'Calibri'" font-size="25.8213">ɚ</text>
		</g>
	</g>
	<g clip-path="url(#SVGID_40_)">
		<defs>
			<rect id="SVGID_43_" x="431" y="123.7" width="42.3" height="27.7"/>
		</defs>
		<clipPath id="SVGID_44_">
			<use xlink:href="#SVGID_43_"  overflow="visible"/>
		</clipPath>
		<g clip-path="url(#SVGID_44_)">
			<text transform="matrix(1 0 0 1 464.3419 148.1079)" font-family="'Calibri'" font-size="25.8213"> </text>
		</g>
	</g>
</g>
<g>
	<defs>
		<polygon id="SVGID_45_" points="351.7,280.5 394.4,280.5 394.4,308.2 351.7,308.2 351.7,280.5 		"/>
	</defs>
	<clipPath id="SVGID_46_">
		<use xlink:href="#SVGID_45_"  overflow="visible"/>
	</clipPath>
	<g clip-path="url(#SVGID_46_)">
		<defs>
			<rect id="SVGID_47_" x="351.7" y="280.5" width="42.7" height="27.7"/>
		</defs>
		<clipPath id="SVGID_48_">
			<use xlink:href="#SVGID_47_"  overflow="visible"/>
		</clipPath>
		<g clip-path="url(#SVGID_48_)">
			<text transform="matrix(1 0 0 1 368.5744 304.9067)" font-family="'Calibri'" font-size="25.8213">æ</text>
		</g>
	</g>
	<g clip-path="url(#SVGID_46_)">
		<defs>
			<rect id="SVGID_49_" x="351.7" y="280.5" width="42.7" height="27.7"/>
		</defs>
		<clipPath id="SVGID_50_">
			<use xlink:href="#SVGID_49_"  overflow="visible"/>
		</clipPath>
		<g clip-path="url(#SVGID_50_)">
			<text transform="matrix(1 0 0 1 388.7658 304.9067)" font-family="'Calibri'" font-size="25.8213"> </text>
		</g>
	</g>
</g>
<g>
	<defs>
		<polygon id="SVGID_51_" points="521.2,320.9 563.9,320.9 563.9,348.1 521.2,348.1 521.2,320.9 		"/>
	</defs>
	<clipPath id="SVGID_52_">
		<use xlink:href="#SVGID_51_"  overflow="visible"/>
	</clipPath>
	<g clip-path="url(#SVGID_52_)">
		<defs>
			<rect id="SVGID_53_" x="521.2" y="320.9" width="42.7" height="27.2"/>
		</defs>
		<clipPath id="SVGID_54_">
			<use xlink:href="#SVGID_53_"  overflow="visible"/>
		</clipPath>
		<g clip-path="url(#SVGID_54_)">
			<text transform="matrix(1 0 0 1 538.0646 345.27)" font-family="'Calibri'" font-size="25.8213">ɑ</text>
		</g>
	</g>
	<g clip-path="url(#SVGID_52_)">
		<defs>
			<rect id="SVGID_55_" x="521.2" y="320.9" width="42.7" height="27.2"/>
		</defs>
		<clipPath id="SVGID_56_">
			<use xlink:href="#SVGID_55_"  overflow="visible"/>
		</clipPath>
		<g clip-path="url(#SVGID_56_)">
			<text transform="matrix(1 0 0 1 551.672 345.27)" font-family="'Calibri'" font-size="25.8213"> </text>
		</g>
	</g>
</g>
<g>
	<defs>
		<polygon id="SVGID_57_" points="519.3,220.9 561.5,220.9 561.5,248.6 519.3,248.6 519.3,220.9 		"/>
	</defs>
	<clipPath id="SVGID_58_">
		<use xlink:href="#SVGID_57_"  overflow="visible"/>
	</clipPath>
	<g clip-path="url(#SVGID_58_)">
		<defs>
			<rect id="SVGID_59_" x="519.3" y="220.9" width="42.3" height="27.7"/>
		</defs>
		<clipPath id="SVGID_60_">
			<use xlink:href="#SVGID_59_"  overflow="visible"/>
		</clipPath>
		<g clip-path="url(#SVGID_60_)">
			<text transform="matrix(1 0 0 1 536.174 245.2876)" font-family="'Calibri'" font-size="25.8213">ɔ</text>
		</g>
	</g>
	<g clip-path="url(#SVGID_58_)">
		<defs>
			<rect id="SVGID_61_" x="519.3" y="220.9" width="42.3" height="27.7"/>
		</defs>
		<clipPath id="SVGID_62_">
			<use xlink:href="#SVGID_61_"  overflow="visible"/>
		</clipPath>
		<g clip-path="url(#SVGID_62_)">
			<text transform="matrix(1 0 0 1 546.9767 245.2876)" font-family="'Calibri'" font-size="25.8213"> </text>
		</g>
	</g>
</g>
<g>
	<defs>
		<polygon id="SVGID_63_" points="519.3,122.7 561.5,122.7 561.5,150.4 519.3,150.4 519.3,122.7 		"/>
	</defs>
	<clipPath id="SVGID_64_">
		<use xlink:href="#SVGID_63_"  overflow="visible"/>
	</clipPath>
	<g clip-path="url(#SVGID_64_)">
		<defs>
			<rect id="SVGID_65_" x="519.3" y="122.7" width="42.3" height="27.7"/>
		</defs>
		<clipPath id="SVGID_66_">
			<use xlink:href="#SVGID_65_"  overflow="visible"/>
		</clipPath>
		<g clip-path="url(#SVGID_66_)">
			<text transform="matrix(1 0 0 1 536.174 147.1723)" font-family="'Calibri'" font-size="25.8213">ʊ</text>
		</g>
	</g>
	<g clip-path="url(#SVGID_64_)">
		<defs>
			<rect id="SVGID_67_" x="519.3" y="122.7" width="42.3" height="27.7"/>
		</defs>
		<clipPath id="SVGID_68_">
			<use xlink:href="#SVGID_67_"  overflow="visible"/>
		</clipPath>
		<g clip-path="url(#SVGID_68_)">
			<text transform="matrix(1 0 0 1 550.7365 147.1723)" font-family="'Calibri'" font-size="25.8213"> </text>
		</g>
	</g>
</g>
<g>
	<defs>
		<polygon id="SVGID_69_" points="519.3,87.5 561.5,87.5 561.5,115.2 519.3,115.2 519.3,87.5 		"/>
	</defs>
	<clipPath id="SVGID_70_">
		<use xlink:href="#SVGID_69_"  overflow="visible"/>
	</clipPath>
	<g clip-path="url(#SVGID_70_)">
		<defs>
			<rect id="SVGID_71_" x="519.3" y="87.5" width="42.3" height="27.7"/>
		</defs>
		<clipPath id="SVGID_72_">
			<use xlink:href="#SVGID_71_"  overflow="visible"/>
		</clipPath>
		<g clip-path="url(#SVGID_72_)">
			<text transform="matrix(1 0 0 1 536.174 111.9633)" font-family="'Calibri'" font-size="25.8213">u</text>
		</g>
	</g>
	<g clip-path="url(#SVGID_70_)">
		<defs>
			<rect id="SVGID_73_" x="519.3" y="87.5" width="42.3" height="27.7"/>
		</defs>
		<clipPath id="SVGID_74_">
			<use xlink:href="#SVGID_73_"  overflow="visible"/>
		</clipPath>
		<g clip-path="url(#SVGID_74_)">
			<text transform="matrix(1 0 0 1 549.8009 111.9633)" font-family="'Calibri'" font-size="25.8213"> </text>
		</g>
	</g>
</g>
<g>
	<defs>
		<polygon id="SVGID_75_" points="0,59.1 161,59.1 161,86.8 0,86.8 0,59.1 		"/>
	</defs>
	<clipPath id="SVGID_76_">
		<use xlink:href="#SVGID_75_"  overflow="visible"/>
	</clipPath>
	<g clip-path="url(#SVGID_76_)">
		<defs>
			<rect id="SVGID_77_" x="0" y="59.1" width="161" height="27.7"/>
		</defs>
		<clipPath id="SVGID_78_">
			<use xlink:href="#SVGID_77_"  overflow="visible"/>
		</clipPath>
		<g clip-path="url(#SVGID_78_)">
			<text transform="matrix(1 0 0 1 30.0314 79.3158)"><tspan x="0" y="0" font-family="'Calibri'" font-size="21.1265">C</tspan><tspan x="11.3" y="0" font-family="'Calibri'" font-size="21.1265">l</tspan><tspan x="16" y="0" font-family="'Calibri'" font-size="21.1265">o</tspan><tspan x="27.2" y="0" font-family="'Calibri'" font-size="21.1265">s</tspan><tspan x="35.6" y="0" font-family="'Calibri'" font-size="21.1265">e</tspan><tspan x="46" y="0" font-family="'Calibri'" font-size="21.1265"> </tspan><tspan x="50.7" y="0" font-family="'Calibri'" font-size="21.1265">(</tspan><tspan x="57.3" y="0" font-family="'Calibri'" font-size="21.1265">h</tspan></text>
		</g>
	</g>
	<g clip-path="url(#SVGID_76_)">
		<defs>
			<rect id="SVGID_79_" x="0" y="59.1" width="161" height="27.7"/>
		</defs>
		<clipPath id="SVGID_80_">
			<use xlink:href="#SVGID_79_"  overflow="visible"/>
		</clipPath>
		<g clip-path="url(#SVGID_80_)">
			<text transform="matrix(1 0 0 1 98.5822 79.3158)"><tspan x="0" y="0" font-family="'Calibri'" font-size="21.1265">i</tspan><tspan x="4.7" y="0" font-family="'Calibri'" font-size="21.1265">g</tspan><tspan x="14.6" y="0" font-family="'Calibri'" font-size="21.1265">h</tspan></text>
		</g>
	</g>
	<g clip-path="url(#SVGID_76_)">
		<defs>
			<rect id="SVGID_81_" x="0" y="59.1" width="161" height="27.7"/>
		</defs>
		<clipPath id="SVGID_82_">
			<use xlink:href="#SVGID_81_"  overflow="visible"/>
		</clipPath>
		<g clip-path="url(#SVGID_82_)">
			<text transform="matrix(1 0 0 1 124.4044 79.3158)" font-family="'Calibri'" font-size="21.1265">)</text>
		</g>
	</g>
	<g clip-path="url(#SVGID_76_)">
		<defs>
			<rect id="SVGID_83_" x="0" y="59.1" width="161" height="27.7"/>
		</defs>
		<clipPath id="SVGID_84_">
			<use xlink:href="#SVGID_83_"  overflow="visible"/>
		</clipPath>
		<g clip-path="url(#SVGID_84_)">
			<text transform="matrix(1 0 0 1 130.5119 79.3158)" font-family="'Calibri'" font-size="21.1265"> </text>
		</g>
	</g>
</g>
<g>
	<defs>
		<polygon id="SVGID_85_" points="178.7,255.6 301.2,255.6 301.2,283.3 178.7,283.3 178.7,255.6 		"/>
	</defs>
	<clipPath id="SVGID_86_">
		<use xlink:href="#SVGID_85_"  overflow="visible"/>
	</clipPath>
	<g clip-path="url(#SVGID_86_)">
		<defs>
			<rect id="SVGID_87_" x="178.7" y="255.6" width="122.5" height="27.7"/>
		</defs>
		<clipPath id="SVGID_88_">
			<use xlink:href="#SVGID_87_"  overflow="visible"/>
		</clipPath>
		<g clip-path="url(#SVGID_88_)">
			<text transform="matrix(1 0 0 1 196.9877 275.7837)"><tspan x="0" y="0" font-family="'Calibri'" font-size="21.1265">O</tspan><tspan x="14.1" y="0" font-family="'Calibri'" font-size="21.1265">p</tspan><tspan x="25.3" y="0" font-family="'Calibri'" font-size="21.1265">e</tspan><tspan x="35.7" y="0" font-family="'Calibri'" font-size="21.1265">n</tspan></text>
		</g>
	</g>
	<g clip-path="url(#SVGID_86_)">
		<defs>
			<rect id="SVGID_89_" x="178.7" y="255.6" width="122.5" height="27.7"/>
		</defs>
		<clipPath id="SVGID_90_">
			<use xlink:href="#SVGID_89_"  overflow="visible"/>
		</clipPath>
		<g clip-path="url(#SVGID_90_)">
			<text transform="matrix(1 0 0 1 243.935 275.7837)" font-family="'Calibri'" font-size="21.1265">-</text>
		</g>
	</g>
	<g clip-path="url(#SVGID_86_)">
		<defs>
			<rect id="SVGID_91_" x="178.7" y="255.6" width="122.5" height="27.7"/>
		</defs>
		<clipPath id="SVGID_92_">
			<use xlink:href="#SVGID_91_"  overflow="visible"/>
		</clipPath>
		<g clip-path="url(#SVGID_92_)">
			<text transform="matrix(1 0 0 1 250.5014 275.7837)"><tspan x="0" y="0" font-family="'Calibri'" font-size="21.1265">m</tspan><tspan x="16.9" y="0" font-family="'Calibri'" font-size="21.1265">i</tspan><tspan x="21.6" y="0" font-family="'Calibri'" font-size="21.1265">d</tspan></text>
		</g>
	</g>
	<g clip-path="url(#SVGID_86_)">
		<defs>
			<rect id="SVGID_93_" x="178.7" y="255.6" width="122.5" height="27.7"/>
		</defs>
		<clipPath id="SVGID_94_">
			<use xlink:href="#SVGID_93_"  overflow="visible"/>
		</clipPath>
		<g clip-path="url(#SVGID_94_)">
			<text transform="matrix(1 0 0 1 282.8881 275.7837)" font-family="'Calibri'" font-size="21.1265"> </text>
		</g>
	</g>
</g>
<g>
	<defs>
		<polygon id="SVGID_95_" points="246.8,355.6 379.1,355.6 379.1,383.3 246.8,383.3 246.8,355.6 		"/>
	</defs>
	<clipPath id="SVGID_96_">
		<use xlink:href="#SVGID_95_"  overflow="visible"/>
	</clipPath>
	<g clip-path="url(#SVGID_96_)">
		<defs>
			<rect id="SVGID_97_" x="246.8" y="355.6" width="132.4" height="27.7"/>
		</defs>
		<clipPath id="SVGID_98_">
			<use xlink:href="#SVGID_97_"  overflow="visible"/>
		</clipPath>
		<g clip-path="url(#SVGID_98_)">
			<text transform="matrix(1 0 0 1 265.5277 375.7944)"><tspan x="0" y="0" font-family="'Calibri'" font-size="21.1265">O</tspan><tspan x="14.1" y="0" font-family="'Calibri'" font-size="21.1265">p</tspan><tspan x="25.3" y="0" font-family="'Calibri'" font-size="21.1265">e</tspan><tspan x="35.7" y="0" font-family="'Calibri'" font-size="21.1265">n</tspan><tspan x="46.9" y="0" font-family="'Calibri'" font-size="21.1265"> </tspan><tspan x="51.6" y="0" font-family="'Calibri'" font-size="21.1265">(</tspan><tspan x="58.2" y="0" font-family="'Calibri'" font-size="21.1265">l</tspan></text>
		</g>
	</g>
	<g clip-path="url(#SVGID_96_)">
		<defs>
			<rect id="SVGID_99_" x="246.8" y="355.6" width="132.4" height="27.7"/>
		</defs>
		<clipPath id="SVGID_100_">
			<use xlink:href="#SVGID_99_"  overflow="visible"/>
		</clipPath>
		<g clip-path="url(#SVGID_100_)">
			<text transform="matrix(1 0 0 1 328.4301 375.7944)"><tspan x="0" y="0" font-family="'Calibri'" font-size="21.1265">o</tspan><tspan x="11.2" y="0" font-family="'Calibri'" font-size="21.1265">w</tspan></text>
		</g>
	</g>
	<g clip-path="url(#SVGID_96_)">
		<defs>
			<rect id="SVGID_101_" x="246.8" y="355.6" width="132.4" height="27.7"/>
		</defs>
		<clipPath id="SVGID_102_">
			<use xlink:href="#SVGID_101_"  overflow="visible"/>
		</clipPath>
		<g clip-path="url(#SVGID_102_)">
			<text transform="matrix(1 0 0 1 354.7113 375.7944)" font-family="'Calibri'" font-size="21.1265">)</text>
		</g>
	</g>
	<g clip-path="url(#SVGID_96_)">
		<defs>
			<rect id="SVGID_103_" x="246.8" y="355.6" width="132.4" height="27.7"/>
		</defs>
		<clipPath id="SVGID_104_">
			<use xlink:href="#SVGID_103_"  overflow="visible"/>
		</clipPath>
		<g clip-path="url(#SVGID_104_)">
			<text transform="matrix(1 0 0 1 360.8363 375.7944)" font-family="'Calibri'" font-size="21.1265"> </text>
		</g>
	</g>
</g>
<g>
	<defs>
		<polygon id="SVGID_105_" points="183.1,45.3 270.9,45.3 270.9,73 183.1,73 183.1,45.3 		"/>
	</defs>
	<clipPath id="SVGID_106_">
		<use xlink:href="#SVGID_105_"  overflow="visible"/>
	</clipPath>
	<g clip-path="url(#SVGID_106_)">
		<defs>
			<rect id="SVGID_107_" x="183.1" y="45.3" width="87.8" height="27.7"/>
		</defs>
		<clipPath id="SVGID_108_">
			<use xlink:href="#SVGID_107_"  overflow="visible"/>
		</clipPath>
		<g clip-path="url(#SVGID_108_)">
			<text transform="matrix(1 0 0 1 203.3224 65.4555)"><tspan x="0" y="0" font-family="'Calibri'" font-size="21.1265">F</tspan><tspan x="9.9" y="0" font-family="'Calibri'" font-size="21.1265">r</tspan><tspan x="17.3" y="0" font-family="'Calibri'" font-size="21.1265">o</tspan><tspan x="28.6" y="0" font-family="'Calibri'" font-size="21.1265">n</tspan><tspan x="39.8" y="0" font-family="'Calibri'" font-size="21.1265">t</tspan></text>
		</g>
	</g>
	<g clip-path="url(#SVGID_106_)">
		<defs>
			<rect id="SVGID_109_" x="183.1" y="45.3" width="87.8" height="27.7"/>
		</defs>
		<clipPath id="SVGID_110_">
			<use xlink:href="#SVGID_109_"  overflow="visible"/>
		</clipPath>
		<g clip-path="url(#SVGID_110_)">
			<text transform="matrix(1 0 0 1 249.7931 65.4555)" font-family="'Calibri'" font-size="21.1265"> </text>
		</g>
	</g>
</g>
<g>
	<defs>
		<polygon id="SVGID_111_" points="353.1,45.3 458.7,45.3 458.7,73 353.1,73 353.1,45.3 		"/>
	</defs>
	<clipPath id="SVGID_112_">
		<use xlink:href="#SVGID_111_"  overflow="visible"/>
	</clipPath>
	<g clip-path="url(#SVGID_112_)">
		<defs>
			<rect id="SVGID_113_" x="353.1" y="45.3" width="105.6" height="27.7"/>
		</defs>
		<clipPath id="SVGID_114_">
			<use xlink:href="#SVGID_113_"  overflow="visible"/>
		</clipPath>
		<g clip-path="url(#SVGID_114_)">
			<text transform="matrix(1 0 0 1 374.6642 65.4555)"><tspan x="0" y="0" font-family="'Calibri'" font-size="21.1265">C</tspan><tspan x="11.3" y="0" font-family="'Calibri'" font-size="21.1265">e</tspan><tspan x="21.6" y="0" font-family="'Calibri'" font-size="21.1265">n</tspan><tspan x="32.9" y="0" font-family="'Calibri'" font-size="21.1265">t</tspan><tspan x="39.9" y="0" font-family="'Calibri'" font-size="21.1265">r</tspan><tspan x="47.4" y="0" font-family="'Calibri'" font-size="21.1265">a</tspan><tspan x="57.7" y="0" font-family="'Calibri'" font-size="21.1265">l</tspan></text>
		</g>
	</g>
	<g clip-path="url(#SVGID_112_)">
		<defs>
			<rect id="SVGID_115_" x="353.1" y="45.3" width="105.6" height="27.7"/>
		</defs>
		<clipPath id="SVGID_116_">
			<use xlink:href="#SVGID_115_"  overflow="visible"/>
		</clipPath>
		<g clip-path="url(#SVGID_116_)">
			<text transform="matrix(1 0 0 1 437.1252 65.4555)" font-family="'Calibri'" font-size="21.1265"> </text>
		</g>
	</g>
</g>
<g>
	<defs>
		<polygon id="SVGID_117_" points="484.5,45.3 590.2,45.3 590.2,73 484.5,73 484.5,45.3 		"/>
	</defs>
	<clipPath id="SVGID_118_">
		<use xlink:href="#SVGID_117_"  overflow="visible"/>
	</clipPath>
	<g clip-path="url(#SVGID_118_)">
		<defs>
			<rect id="SVGID_119_" x="484.5" y="45.3" width="105.6" height="27.7"/>
		</defs>
		<clipPath id="SVGID_120_">
			<use xlink:href="#SVGID_119_"  overflow="visible"/>
		</clipPath>
		<g clip-path="url(#SVGID_120_)">
			<text transform="matrix(1 0 0 1 517.3966 65.4555)"><tspan x="0" y="0" font-family="'Calibri'" font-size="21.1265">B</tspan><tspan x="11.7" y="0" font-family="'Calibri'" font-size="21.1265">a</tspan><tspan x="22" y="0" font-family="'Calibri'" font-size="21.1265">ck</tspan></text>
		</g>
	</g>
	<g clip-path="url(#SVGID_118_)">
		<defs>
			<rect id="SVGID_121_" x="484.5" y="45.3" width="105.6" height="27.7"/>
		</defs>
		<clipPath id="SVGID_122_">
			<use xlink:href="#SVGID_121_"  overflow="visible"/>
		</clipPath>
		<g clip-path="url(#SVGID_122_)">
			<text transform="matrix(1 0 0 1 557.7775 65.4555)" font-family="'Calibri'" font-size="21.1265"> </text>
		</g>
	</g>
</g>
<g>
	<defs>
		<polygon id="SVGID_123_" points="95.3,161.2 226.8,161.2 226.8,188.5 95.3,188.5 95.3,161.2 		"/>
	</defs>
	<clipPath id="SVGID_124_">
		<use xlink:href="#SVGID_123_"  overflow="visible"/>
	</clipPath>
	<g clip-path="url(#SVGID_124_)">
		<defs>
			<rect id="SVGID_125_" x="95.3" y="161.2" width="131.5" height="27.2"/>
		</defs>
		<clipPath id="SVGID_126_">
			<use xlink:href="#SVGID_125_"  overflow="visible"/>
		</clipPath>
		<g clip-path="url(#SVGID_126_)">
			<text transform="matrix(1 0 0 1 118.2894 181.4301)"><tspan x="0" y="0" font-family="'Calibri'" font-size="21.1265">C</tspan><tspan x="11.3" y="0" font-family="'Calibri'" font-size="21.1265">l</tspan><tspan x="16" y="0" font-family="'Calibri'" font-size="21.1265">o</tspan><tspan x="27.2" y="0" font-family="'Calibri'" font-size="21.1265">s</tspan><tspan x="35.6" y="0" font-family="'Calibri'" font-size="21.1265">e</tspan></text>
		</g>
	</g>
	<g clip-path="url(#SVGID_124_)">
		<defs>
			<rect id="SVGID_127_" x="95.3" y="161.2" width="131.5" height="27.2"/>
		</defs>
		<clipPath id="SVGID_128_">
			<use xlink:href="#SVGID_127_"  overflow="visible"/>
		</clipPath>
		<g clip-path="url(#SVGID_128_)">
			<text transform="matrix(1 0 0 1 164.3031 181.4301)" font-family="'Calibri'" font-size="21.1265">-</text>
		</g>
	</g>
	<g clip-path="url(#SVGID_124_)">
		<defs>
			<rect id="SVGID_129_" x="95.3" y="161.2" width="131.5" height="27.2"/>
		</defs>
		<clipPath id="SVGID_130_">
			<use xlink:href="#SVGID_129_"  overflow="visible"/>
		</clipPath>
		<g clip-path="url(#SVGID_130_)">
			<text transform="matrix(1 0 0 1 170.8871 181.4301)"><tspan x="0" y="0" font-family="'Calibri'" font-size="21.1265">m</tspan><tspan x="16.9" y="0" font-family="'Calibri'" font-size="21.1265">i</tspan><tspan x="21.6" y="0" font-family="'Calibri'" font-size="21.1265">d</tspan></text>
		</g>
	</g>
	<g clip-path="url(#SVGID_124_)">
		<defs>
			<rect id="SVGID_131_" x="95.3" y="161.2" width="131.5" height="27.2"/>
		</defs>
		<clipPath id="SVGID_132_">
			<use xlink:href="#SVGID_131_"  overflow="visible"/>
		</clipPath>
		<g clip-path="url(#SVGID_132_)">
			<text transform="matrix(1 0 0 1 203.7503 181.4301)" font-family="'Calibri'" font-size="21.1265"> </text>
		</g>
	</g>
</g>
</svg>
