<?xml version="1.0" encoding="utf-8"?>
<!-- Generator: Adobe Illustrator 18.0.0, SVG Export Plug-In . SVG Version: 6.00 Build 0)  -->
<!DOCTYPE svg PUBLIC "-//W3C//DTD SVG 1.0//EN" "http://www.w3.org/TR/2001/REC-SVG-20010904/DTD/svg10.dtd">
<svg version="1.0" id="Layer_1" xmlns="http://www.w3.org/2000/svg" xmlns:xlink="http://www.w3.org/1999/xlink" x="0px" y="0px"
	 viewBox="0 577.8 1080 771.1" enable-background="new 0 577.8 1080 771.1" xml:space="preserve">
<rect x="8.6" y="587.8" fill="#195FF9" stroke="#000000" stroke-width="4" stroke-miterlimit="10" width="329.9" height="93.6"/>
<rect x="337.5" y="587.8" fill="#195FF9" stroke="#000000" stroke-width="4" stroke-miterlimit="10" width="349.5" height="93.6"/>
<rect x="687.1" y="587.8" fill="#195FF9" stroke="#000000" stroke-width="4" stroke-miterlimit="10" width="382.6" height="93.6"/>
<text transform="matrix(1 0 0 1 32.0811 644.7491)" fill="#FFFFFF" font-family="'MyriadPro-Bold'" font-size="31.9023">Organ of Articulation</text>
<text transform="matrix(1 0 0 1 377.6899 644.7491)" fill="#FFFFFF" font-family="'MyriadPro-Bold'" font-size="31.9023">Phonetic Descriptor</text>
<text transform="matrix(1 0 0 1 716.7529 644.7491)" fill="#FFFFFF" font-family="'MyriadPro-Bold'" font-size="31.9023">Examples</text>
<rect x="8.6" y="681.3" fill="#FFFFFF" stroke="#000000" stroke-width="4" stroke-miterlimit="10" width="329.9" height="93.6"/>
<rect x="337.5" y="681.3" fill="#FFFFFF" stroke="#000000" stroke-width="4" stroke-miterlimit="10" width="349.5" height="93.6"/>
<rect x="687.1" y="681.3" fill="#FFFFFF" stroke="#000000" stroke-width="4" stroke-miterlimit="10" width="382.6" height="93.6"/>
<text transform="matrix(1 0 0 1 36.3349 737.2744)" font-family="'MyriadPro-Regular'" font-size="31.9023">Lower lip</text>
<text transform="matrix(1 0 0 1 377.6899 737.2744)" font-family="'MyriadPro-Regular'" font-size="31.9023">Labial</text>
<text transform="matrix(1 0 0 1 716.7529 737.2744)" font-family="'MyriadPro-Regular'" font-size="31.9023">/p/, /b/, /m/, /f /, /v/, /w/</text>
<rect x="8.6" y="775" fill="#FFFFFF" stroke="#000000" stroke-width="4" stroke-miterlimit="10" width="329.9" height="93.6"/>
<rect x="337.5" y="775" fill="#FFFFFF" stroke="#000000" stroke-width="4" stroke-miterlimit="10" width="349.5" height="93.6"/>
<rect x="687.1" y="775" fill="#FFFFFF" stroke="#000000" stroke-width="4" stroke-miterlimit="10" width="382.6" height="93.6"/>
<text transform="matrix(1 0 0 1 36.3349 830.8912)" font-family="'MyriadPro-Regular'" font-size="31.9023">Tip of tongue</text>
<text transform="matrix(1 0 0 1 377.6899 830.8912)" font-family="'MyriadPro-Regular'" font-size="31.9023">Coronal</text>
<text transform="matrix(1 0 0 1 716.7529 830.8912)" font-family="'MyriadPro-Regular'" font-size="31.9023">/s/, /z/, /θ/, /ð/, /ɹ/, /l/</text>
<rect x="8.6" y="868.6" fill="#FFFFFF" stroke="#000000" stroke-width="4" stroke-miterlimit="10" width="329.9" height="93.6"/>
<rect x="337.5" y="868.6" fill="#FFFFFF" stroke="#000000" stroke-width="4" stroke-miterlimit="10" width="349.5" height="93.6"/>
<rect x="687.1" y="868.6" fill="#FFFFFF" stroke="#000000" stroke-width="4" stroke-miterlimit="10" width="382.6" height="93.6"/>
<text transform="matrix(1 0 0 1 36.3349 924.5078)" font-family="'MyriadPro-Regular'" font-size="31.9023">Lateral rims of tongue</text>
<text transform="matrix(1 0 0 1 377.6899 924.5078)" font-family="'MyriadPro-Regular'" font-size="31.9023">Dorsum</text>
<text transform="matrix(1 0 0 1 716.7529 924.5078)" font-family="'MyriadPro-Regular'" font-size="31.9023">/t/, /d/, /n/, /ʃ/, /ʒ/</text>
<rect x="8.6" y="962.2" fill="#FFFFFF" stroke="#000000" stroke-width="4" stroke-miterlimit="10" width="329.9" height="93.6"/>
<rect x="337.5" y="962.2" fill="#FFFFFF" stroke="#000000" stroke-width="4" stroke-miterlimit="10" width="349.5" height="93.6"/>
<rect x="687.1" y="962.2" fill="#FFFFFF" stroke="#000000" stroke-width="4" stroke-miterlimit="10" width="382.6" height="93.6"/>
<text transform="matrix(1 0 0 1 36.3349 1018.1249)" font-family="'MyriadPro-Regular'" font-size="31.9023">Surface of tongue</text>
<text transform="matrix(1 0 0 1 377.6899 1018.1249)" font-family="'MyriadPro-Regular'" font-size="31.9023">Apical</text>
<text transform="matrix(1 0 0 1 716.7529 1018.1249)" font-family="'MyriadPro-Regular'" font-size="31.9023">-</text>
<rect x="8.6" y="1055.9" fill="#FFFFFF" stroke="#000000" stroke-width="4" stroke-miterlimit="10" width="329.9" height="93.6"/>
<rect x="337.5" y="1055.9" fill="#FFFFFF" stroke="#000000" stroke-width="4" stroke-miterlimit="10" width="349.5" height="93.6"/>
<rect x="687.1" y="1055.9" fill="#FFFFFF" stroke="#000000" stroke-width="4" stroke-miterlimit="10" width="382.6" height="93.6"/>
<text transform="matrix(1 0 0 1 88.4419 1110.6788)" font-family="'MyriadPro-Regular'" font-size="31.9023">Anterior portion</text>
<text transform="matrix(1 0 0 1 429.7974 1110.6788)" font-family="'MyriadPro-Regular'" font-size="31.9023">Predorsal</text>
<text transform="matrix(1 0 0 1 716.7529 1111.7412)" font-family="'MyriadPro-Regular'" font-size="31.9023">/s/, /z/</text>
<rect x="8.6" y="1149.4" fill="#FFFFFF" stroke="#000000" stroke-width="4" stroke-miterlimit="10" width="329.9" height="93.6"/>
<rect x="337.5" y="1149.4" fill="#FFFFFF" stroke="#000000" stroke-width="4" stroke-miterlimit="10" width="349.5" height="93.6"/>
<rect x="687.1" y="1149.4" fill="#FFFFFF" stroke="#000000" stroke-width="4" stroke-miterlimit="10" width="382.6" height="93.6"/>
<text transform="matrix(1 0 0 1 87.3784 1205.3584)" font-family="'MyriadPro-Regular'" font-size="31.9023">Central portion</text>
<text transform="matrix(1 0 0 1 428.7339 1205.3584)" font-family="'MyriadPro-Regular'" font-size="31.9023">Mediodorsal</text>
<text transform="matrix(1 0 0 1 716.7529 1205.3584)" font-family="'MyriadPro-Regular'" font-size="31.9023">/j/, /ɹ/</text>
<rect x="8.6" y="1243" fill="#FFFFFF" stroke="#000000" stroke-width="4" stroke-miterlimit="10" width="329.9" height="93.6"/>
<rect x="337.5" y="1243" fill="#FFFFFF" stroke="#000000" stroke-width="4" stroke-miterlimit="10" width="349.5" height="93.6"/>
<rect x="687.1" y="1243" fill="#FFFFFF" stroke="#000000" stroke-width="4" stroke-miterlimit="10" width="382.6" height="93.6"/>
<text transform="matrix(1 0 0 1 87.3784 1298.9756)" font-family="'MyriadPro-Regular'" font-size="31.9023">Posterior portion</text>
<text transform="matrix(1 0 0 1 428.7339 1298.9756)" font-family="'MyriadPro-Regular'" font-size="31.9023">Postdorsal</text>
<text transform="matrix(1 0 0 1 716.7529 1298.9756)" font-family="'MyriadPro-Regular'" font-size="31.9023">/k/, /g/, /ŋ/</text>
</svg>
