<?xml version="1.0" encoding="utf-8"?>
<!-- Generator: Adobe Illustrator 18.0.0, SVG Export Plug-In . SVG Version: 6.00 Build 0)  -->
<!DOCTYPE svg PUBLIC "-//W3C//DTD SVG 1.0//EN" "http://www.w3.org/TR/2001/REC-SVG-20010904/DTD/svg10.dtd">
<svg version="1.0" id="Layer_1" xmlns="http://www.w3.org/2000/svg" xmlns:xlink="http://www.w3.org/1999/xlink" x="0px" y="0px"
	 viewBox="0 532 1080 860" enable-background="new 0 532 1080 860" xml:space="preserve">
<rect x="8.6" y="540" fill="#195FF9" stroke="#000000" stroke-width="4" stroke-miterlimit="10" width="329.9" height="93.6"/>
<rect x="337.5" y="540" fill="#195FF9" stroke="#000000" stroke-width="4" stroke-miterlimit="10" width="349.5" height="93.6"/>
<rect x="687.1" y="540" fill="#195FF9" stroke="#000000" stroke-width="4" stroke-miterlimit="10" width="382.6" height="93.6"/>
<text transform="matrix(1 0 0 1 32.0811 596.9487)" fill="#FFFFFF" font-family="'MyriadPro-Bold'" font-size="31.9023">Place of Articulation</text>
<text transform="matrix(1 0 0 1 377.6899 596.9487)" fill="#FFFFFF" font-family="'MyriadPro-Bold'" font-size="31.9023">Phonetic Descriptor</text>
<text transform="matrix(1 0 0 1 716.7529 596.9487)" fill="#FFFFFF" font-family="'MyriadPro-Bold'" font-size="31.9023">Examples</text>
<rect x="8.6" y="633.5" fill="#FFFFFF" stroke="#000000" stroke-width="4" stroke-miterlimit="10" width="329.9" height="93.6"/>
<rect x="337.5" y="633.5" fill="#FFFFFF" stroke="#000000" stroke-width="4" stroke-miterlimit="10" width="349.5" height="93.6"/>
<rect x="687.1" y="633.5" fill="#FFFFFF" stroke="#000000" stroke-width="4" stroke-miterlimit="10" width="382.6" height="93.6"/>
<text transform="matrix(1 0 0 1 36.3349 689.4736)" font-family="'MyriadPro-Regular'" font-size="31.9023">Upper lip</text>
<text transform="matrix(1 0 0 1 377.6899 689.4736)" font-family="'MyriadPro-Regular'" font-size="31.9023">Labial</text>
<text transform="matrix(1 0 0 1 716.7529 689.4736)" font-family="'MyriadPro-Regular'" font-size="31.9023">/p/, /b/, /m/, /w/</text>
<rect x="8.6" y="727.2" fill="#FFFFFF" stroke="#000000" stroke-width="4" stroke-miterlimit="10" width="329.9" height="93.6"/>
<rect x="337.5" y="727.2" fill="#FFFFFF" stroke="#000000" stroke-width="4" stroke-miterlimit="10" width="349.5" height="93.6"/>
<rect x="687.1" y="727.2" fill="#FFFFFF" stroke="#000000" stroke-width="4" stroke-miterlimit="10" width="382.6" height="93.6"/>
<text transform="matrix(1 0 0 1 36.3349 783.0909)" font-family="'MyriadPro-Regular'" font-size="31.9023">Upper teeth</text>
<text transform="matrix(1 0 0 1 377.6899 783.0909)" font-family="'MyriadPro-Regular'" font-size="31.9023">Dental</text>
<text transform="matrix(1 0 0 1 716.7529 783.0909)" font-family="'MyriadPro-Regular'" font-size="31.9023">/f/, /v/, /θ/, /ð/</text>
<rect x="8.6" y="820.8" fill="#FFFFFF" stroke="#000000" stroke-width="4" stroke-miterlimit="10" width="329.9" height="93.6"/>
<rect x="337.5" y="820.8" fill="#FFFFFF" stroke="#000000" stroke-width="4" stroke-miterlimit="10" width="349.5" height="93.6"/>
<rect x="687.1" y="820.8" fill="#FFFFFF" stroke="#000000" stroke-width="4" stroke-miterlimit="10" width="382.6" height="93.6"/>
<text transform="matrix(1 0 0 1 36.3349 876.7075)" font-family="'MyriadPro-Regular'" font-size="31.9023">Alveolar ridge</text>
<text transform="matrix(1 0 0 1 377.6899 876.7075)" font-family="'MyriadPro-Regular'" font-size="31.9023">Alveolar</text>
<text transform="matrix(1 0 0 1 716.7529 876.7075)" font-family="'MyriadPro-Regular'" font-size="31.9023">/t/, /d/, /n/, /s/, /z/, /l/</text>
<rect x="8.6" y="914.4" fill="#FFFFFF" stroke="#000000" stroke-width="4" stroke-miterlimit="10" width="329.9" height="93.6"/>
<rect x="337.5" y="914.4" fill="#FFFFFF" stroke="#000000" stroke-width="4" stroke-miterlimit="10" width="349.5" height="93.6"/>
<rect x="687.1" y="914.4" fill="#FFFFFF" stroke="#000000" stroke-width="4" stroke-miterlimit="10" width="382.6" height="93.6"/>
<text transform="matrix(1 0 0 1 36.3349 970.3242)" font-family="'MyriadPro-Regular'" font-size="31.9023">Surface of hard palate</text>
<text transform="matrix(1 0 0 1 377.6899 970.3242)" font-family="'MyriadPro-Regular'" font-size="31.9023">Palatal</text>
<text transform="matrix(1 0 0 1 716.7529 970.3242)" font-family="'MyriadPro-Regular'" font-size="31.9023">-</text>
<rect x="8.6" y="1288.9" fill="#FFFFFF" stroke="#000000" stroke-width="4" stroke-miterlimit="10" width="329.9" height="93.6"/>
<rect x="337.5" y="1288.9" fill="#FFFFFF" stroke="#000000" stroke-width="4" stroke-miterlimit="10" width="349.5" height="93.6"/>
<rect x="687.1" y="1288.9" fill="#FFFFFF" stroke="#000000" stroke-width="4" stroke-miterlimit="10" width="382.6" height="93.6"/>
<text transform="matrix(1 0 0 1 36.3349 1344.792)" font-family="'MyriadPro-Regular'" font-size="31.9023">Soft Palate</text>
<text transform="matrix(1 0 0 1 377.6899 1344.792)" font-family="'MyriadPro-Regular'" font-size="31.9023">Velar</text>
<text transform="matrix(1 0 0 1 716.7529 1344.792)" font-family="'MyriadPro-Regular'" font-size="31.9023">/k/, /g/, /ŋ/</text>
<rect x="8.6" y="1008.1" fill="#FFFFFF" stroke="#000000" stroke-width="4" stroke-miterlimit="10" width="329.9" height="93.6"/>
<rect x="337.5" y="1008.1" fill="#FFFFFF" stroke="#000000" stroke-width="4" stroke-miterlimit="10" width="349.5" height="93.6"/>
<rect x="687.1" y="1008.1" fill="#FFFFFF" stroke="#000000" stroke-width="4" stroke-miterlimit="10" width="382.6" height="93.6"/>
<text transform="matrix(1 0 0 1 88.4419 1062.8779)" font-family="'MyriadPro-Regular'" font-size="31.9023">Anterior portion</text>
<text transform="matrix(1 0 0 1 429.7974 1062.8779)" font-family="'MyriadPro-Regular'" font-size="31.9023">Prepalatal</text>
<text transform="matrix(1 0 0 1 716.7529 1063.9414)" font-family="'MyriadPro-Regular'" font-size="31.9023">/ʃ/, /ʒ/, /ɹ/</text>
<rect x="8.6" y="1101.6" fill="#FFFFFF" stroke="#000000" stroke-width="4" stroke-miterlimit="10" width="329.9" height="93.6"/>
<rect x="337.5" y="1101.6" fill="#FFFFFF" stroke="#000000" stroke-width="4" stroke-miterlimit="10" width="349.5" height="93.6"/>
<rect x="687.1" y="1101.6" fill="#FFFFFF" stroke="#000000" stroke-width="4" stroke-miterlimit="10" width="382.6" height="93.6"/>
<text transform="matrix(1 0 0 1 87.3784 1157.5586)" font-family="'MyriadPro-Regular'" font-size="31.9023">Central portion</text>
<text transform="matrix(1 0 0 1 428.7339 1157.5586)" font-family="'MyriadPro-Regular'" font-size="31.9023">Mediopalatal</text>
<text transform="matrix(1 0 0 1 716.7529 1157.5586)" font-family="'MyriadPro-Regular'" font-size="31.9023">/j/, /ɹ/</text>
<rect x="8.6" y="1195.2" fill="#FFFFFF" stroke="#000000" stroke-width="4" stroke-miterlimit="10" width="329.9" height="93.6"/>
<rect x="337.5" y="1195.2" fill="#FFFFFF" stroke="#000000" stroke-width="4" stroke-miterlimit="10" width="349.5" height="93.6"/>
<rect x="687.1" y="1195.2" fill="#FFFFFF" stroke="#000000" stroke-width="4" stroke-miterlimit="10" width="382.6" height="93.6"/>
<text transform="matrix(1 0 0 1 87.3784 1251.1748)" font-family="'MyriadPro-Regular'" font-size="31.9023">Posterior portion</text>
<text transform="matrix(1 0 0 1 428.7339 1251.1748)" font-family="'MyriadPro-Regular'" font-size="31.9023">Postpalatal</text>
<text transform="matrix(1 0 0 1 716.7529 1251.1748)" font-family="'MyriadPro-Regular'" font-size="31.9023">---</text>
</svg>
