<?xml version="1.0" encoding="utf-8"?>
<!-- Generator: Adobe Illustrator 18.0.0, SVG Export Plug-In . SVG Version: 6.00 Build 0)  -->
<!DOCTYPE svg PUBLIC "-//W3C//DTD SVG 1.0//EN" "http://www.w3.org/TR/2001/REC-SVG-20010904/DTD/svg10.dtd">
<svg version="1.0" id="Layer_1" xmlns="http://www.w3.org/2000/svg" xmlns:xlink="http://www.w3.org/1999/xlink" x="0px" y="0px"
	 viewBox="14.5 -7.2 481.7 617.2" enable-background="new 14.5 -7.2 481.7 617.2" xml:space="preserve">
<rect x="18.1" y="5" fill="#195FF9" stroke="#000000" stroke-width="4" stroke-miterlimit="10" width="177.5" height="45.1"/>
<rect x="195.6" y="5" fill="#195FF9" stroke="#000000" stroke-width="4" stroke-miterlimit="10" width="297.3" height="45.1"/>
<text transform="matrix(1 0 0 1 33.026 35.6055)" fill="#FFFFFF" font-family="'MyriadPro-Bold'" font-size="17.1687">Phonemes</text>
<text transform="matrix(1 0 0 1 217.246 35.6055)" fill="#FFFFFF" font-family="'MyriadPro-Bold'" font-size="17.1687">Mispronunciation</text>
<rect x="18.1" y="50" fill="#FFFFFF" stroke="#000000" stroke-width="4" stroke-miterlimit="10" width="177.5" height="45.1"/>
<rect x="195.6" y="50" fill="#FFFFFF" stroke="#000000" stroke-width="4" stroke-miterlimit="10" width="297.3" height="45.1"/>
<text transform="matrix(1 0 0 1 33.0254 77.0801)" font-family="'MyriadPro-Regular'" font-size="17.1687">/ɑ/</text>
<rect x="18.1" y="95.1" fill="#FFFFFF" stroke="#000000" stroke-width="4" stroke-miterlimit="10" width="177.5" height="45.1"/>
<rect x="195.6" y="95.1" fill="#FFFFFF" stroke="#000000" stroke-width="4" stroke-miterlimit="10" width="297.3" height="45.1"/>
<text transform="matrix(1 0 0 1 33.0254 123.7639)" font-family="'MyriadPro-Regular'" font-size="17.1687">/æ/</text>
<rect x="18.1" y="140.1" fill="#FFFFFF" stroke="#000000" stroke-width="4" stroke-miterlimit="10" width="177.5" height="45.1"/>
<rect x="195.6" y="140.1" fill="#FFFFFF" stroke="#000000" stroke-width="4" stroke-miterlimit="10" width="297.3" height="45.1"/>
<text transform="matrix(1 0 0 1 33.0254 169.83)" font-family="'MyriadPro-Regular'" font-size="17.1687">/ɔ/</text>
<rect x="18.1" y="185.2" fill="#FFFFFF" stroke="#000000" stroke-width="4" stroke-miterlimit="10" width="177.5" height="45.1"/>
<rect x="195.6" y="185.2" fill="#FFFFFF" stroke="#000000" stroke-width="4" stroke-miterlimit="10" width="297.3" height="45.1"/>
<text transform="matrix(1 0 0 1 33.0254 213.4318)" font-family="'MyriadPro-Regular'" font-size="17.1687">/ə/</text>
<rect x="18.1" y="230.2" fill="#FFFFFF" stroke="#000000" stroke-width="4" stroke-miterlimit="10" width="177.5" height="45.1"/>
<rect x="195.6" y="230.2" fill="#FFFFFF" stroke="#000000" stroke-width="4" stroke-miterlimit="10" width="297.3" height="45.1"/>
<text transform="matrix(1 0 0 1 33.0254 258.8632)" font-family="'MyriadPro-Regular'" font-size="17.1687">/ɚ/</text>
<rect x="18.1" y="275.2" fill="#FFFFFF" stroke="#000000" stroke-width="4" stroke-miterlimit="10" width="177.5" height="45.1"/>
<rect x="195.6" y="275.2" fill="#FFFFFF" stroke="#000000" stroke-width="4" stroke-miterlimit="10" width="297.3" height="45.1"/>
<text transform="matrix(1 0 0 1 33.0254 303.6779)" font-family="'MyriadPro-Regular'" font-size="17.1687">/e/</text>
<rect x="18.1" y="320.3" fill="#FFFFFF" stroke="#000000" stroke-width="4" stroke-miterlimit="10" width="177.5" height="45.1"/>
<rect x="195.6" y="320.3" fill="#FFFFFF" stroke="#000000" stroke-width="4" stroke-miterlimit="10" width="297.3" height="45.1"/>
<text transform="matrix(1 0 0 1 33.0258 348.4932)" font-family="'MyriadPro-Regular'" font-size="17.1687">/ɝ/</text>
<rect x="18.1" y="365.3" fill="#FFFFFF" stroke="#000000" stroke-width="4" stroke-miterlimit="10" width="177.5" height="45.1"/>
<rect x="195.6" y="365.3" fill="#FFFFFF" stroke="#000000" stroke-width="4" stroke-miterlimit="10" width="297.3" height="45.1"/>
<text transform="matrix(1 0 0 1 33.0254 393.3068)" font-family="'MyriadPro-Regular'" font-size="17.1687">/i/</text>
<rect x="18.1" y="410.4" fill="#FFFFFF" stroke="#000000" stroke-width="4" stroke-miterlimit="10" width="177.5" height="45.1"/>
<rect x="195.6" y="410.4" fill="#FFFFFF" stroke="#000000" stroke-width="4" stroke-miterlimit="10" width="297.3" height="45.1"/>
<text transform="matrix(1 0 0 1 32.4089 439.2218)" font-family="'MyriadPro-Regular'" font-size="17.1687">/ɪ/</text>
<text transform="matrix(1 0 0 1 217.5537 77.0801)" font-family="'MyriadPro-Regular'" font-size="17.1687">-</text>
<text transform="matrix(1 0 0 1 217.5536 123.7639)" font-family="'MyriadPro-Regular'" font-size="17.1687">-</text>
<text transform="matrix(1 0 0 1 217.5536 169.83)" font-family="'MyriadPro-Regular'" font-size="17.1687">-</text>
<text transform="matrix(1 0 0 1 217.5536 213.4318)" font-family="'MyriadPro-Regular'" font-size="17.1687">-</text>
<text transform="matrix(1 0 0 1 217.5539 258.8632)" font-family="'MyriadPro-Regular'" font-size="17.1687">-</text>
<text transform="matrix(1 0 0 1 217.5537 303.6779)" font-family="'MyriadPro-Regular'" font-size="17.1687">-</text>
<text transform="matrix(1 0 0 1 217.5539 348.4932)" font-family="'MyriadPro-Regular'" font-size="17.1687">/i/</text>
<text transform="matrix(1 0 0 1 217.5537 393.3068)" font-family="'MyriadPro-Regular'" font-size="17.1687">-</text>
<text transform="matrix(1 0 0 1 216.9376 439.2218)" font-family="'MyriadPro-Regular'" font-size="17.1687">/i/</text>
<rect x="18.1" y="455.4" fill="#FFFFFF" stroke="#000000" stroke-width="4" stroke-miterlimit="10" width="177.5" height="45.1"/>
<rect x="195.6" y="455.4" fill="#FFFFFF" stroke="#000000" stroke-width="4" stroke-miterlimit="10" width="297.3" height="45.1"/>
<text transform="matrix(1 0 0 1 32.4089 484.2747)" font-family="'MyriadPro-Regular'" font-size="17.1687">/u/</text>
<text transform="matrix(1 0 0 1 216.9376 484.2747)" font-family="'MyriadPro-Regular'" font-size="17.1687">/ʊ/</text>
<rect x="18.1" y="500.5" fill="#FFFFFF" stroke="#000000" stroke-width="4" stroke-miterlimit="10" width="177.5" height="45.1"/>
<rect x="195.6" y="500.5" fill="#FFFFFF" stroke="#000000" stroke-width="4" stroke-miterlimit="10" width="297.3" height="45.1"/>
<text transform="matrix(1 0 0 1 32.4089 529.3277)" font-family="'MyriadPro-Regular'" font-size="17.1687">/ʊ/</text>
<text transform="matrix(1 0 0 1 216.9376 529.3277)" font-family="'MyriadPro-Regular'" font-size="17.1687">/u/</text>
<rect x="18.1" y="545.5" fill="#FFFFFF" stroke="#000000" stroke-width="4" stroke-miterlimit="10" width="177.5" height="45.1"/>
<rect x="195.6" y="545.5" fill="#FFFFFF" stroke="#000000" stroke-width="4" stroke-miterlimit="10" width="297.3" height="45.1"/>
<text transform="matrix(1 0 0 1 32.4089 574.3806)" font-family="'MyriadPro-Regular'" font-size="17.1687">/ʌ/   </text>
<text transform="matrix(1 0 0 1 216.9376 574.3806)" font-family="'MyriadPro-Regular'" font-size="17.1687">-</text>
</svg>
