<?xml version="1.0" encoding="utf-8"?>
<!-- Generator: Adobe Illustrator 18.0.0, SVG Export Plug-In . SVG Version: 6.00 Build 0)  -->
<!DOCTYPE svg PUBLIC "-//W3C//DTD SVG 1.0//EN" "http://www.w3.org/TR/2001/REC-SVG-20010904/DTD/svg10.dtd">
<svg version="1.0" id="Layer_1" xmlns="http://www.w3.org/2000/svg" xmlns:xlink="http://www.w3.org/1999/xlink" x="0px" y="0px"
	 viewBox="0 0 1116.4 808.5" enable-background="new 0 0 1116.4 808.5" xml:space="preserve">
<rect x="4.1" y="3.9" fill="#195FF9" stroke="#000000" stroke-width="4" stroke-miterlimit="10" width="366.3" height="88"/>
<rect x="369.6" y="3.9" fill="#195FF9" stroke="#000000" stroke-width="4" stroke-miterlimit="10" width="328.7" height="88"/>
<rect x="698.2" y="3.9" fill="#195FF9" stroke="#000000" stroke-width="4" stroke-miterlimit="10" width="413.9" height="88"/>
<text transform="matrix(1 0 0 1 33.293 57.5459)" fill="#FFFFFF" font-family="'MyriadPro-Bold'" font-size="30">Manner of Articulation</text>
<text transform="matrix(1 0 0 1 398.2935 57.5459)" fill="#FFFFFF" font-family="'MyriadPro-Bold'" font-size="30">Phonetic Descriptor</text>
<text transform="matrix(1 0 0 1 726.1381 57.5459)" fill="#FFFFFF" font-family="'MyriadPro-Bold'" font-size="30">Examples</text>
<rect x="4.1" y="92" fill="#FFFFFF" stroke="#000000" stroke-width="4" stroke-miterlimit="10" width="366.3" height="88"/>
<rect x="369.6" y="92" fill="#FFFFFF" stroke="#000000" stroke-width="4" stroke-miterlimit="10" width="328.7" height="88"/>
<rect x="698.2" y="92" fill="#FFFFFF" stroke="#000000" stroke-width="4" stroke-miterlimit="10" width="413.9" height="88"/>
<text transform="matrix(1 0 0 1 24.293 144.5537)" font-family="'MyriadPro-Regular'" font-size="30">Complete Blockage</text>
<text transform="matrix(1 0 0 1 398.2935 144.5537)" font-family="'MyriadPro-Regular'" font-size="30">Stop-plosive</text>
<text transform="matrix(1 0 0 1 726.1384 144.5537)" font-family="'MyriadPro-Regular'" font-size="30">/p/, /b/, /t/, /d/, /k/, /g/</text>
<rect x="4.1" y="180" fill="#FFFFFF" stroke="#000000" stroke-width="4" stroke-miterlimit="10" width="366.3" height="88"/>
<rect x="369.6" y="180" fill="#FFFFFF" stroke="#000000" stroke-width="4" stroke-miterlimit="10" width="328.7" height="88"/>
<rect x="698.2" y="180" fill="#FFFFFF" stroke="#000000" stroke-width="4" stroke-miterlimit="10" width="413.9" height="88"/>
<text transform="matrix(1 0 0 1 24.293 232.5882)" font-family="'MyriadPro-Regular'" font-size="30">Partial Blockage</text>
<text transform="matrix(1 0 0 1 398.2935 232.5882)" font-family="'MyriadPro-Regular'" font-size="30">Fricative</text>
<text transform="matrix(1 0 0 1 726.1384 232.5882)" font-family="'MyriadPro-Regular'" font-size="30">/f/, /v/, /s/, /z/, /ʃ /, /ʒ/, /θ/, /ð/</text>
<rect x="4.1" y="268" fill="#FFFFFF" stroke="#000000" stroke-width="4" stroke-miterlimit="10" width="366.3" height="88"/>
<rect x="369.6" y="268" fill="#FFFFFF" stroke="#000000" stroke-width="4" stroke-miterlimit="10" width="328.7" height="88"/>
<rect x="698.2" y="268" fill="#FFFFFF" stroke="#000000" stroke-width="4" stroke-miterlimit="10" width="413.9" height="88"/>
<text transform="matrix(1 0 0 1 24.293 320.6227)" font-family="'MyriadPro-Regular'" font-size="30">Nasal Emission</text>
<text transform="matrix(1 0 0 1 398.2935 320.6227)" font-family="'MyriadPro-Regular'" font-size="30">Nasal</text>
<text transform="matrix(1 0 0 1 726.1384 320.6227)" font-family="'MyriadPro-Regular'" font-size="30">/m/, /n/, /ŋ/</text>
<rect x="4.1" y="356.1" fill="#FFFFFF" stroke="#000000" stroke-width="4" stroke-miterlimit="10" width="366.3" height="108.6"/>
<rect x="369.6" y="356.1" fill="#FFFFFF" stroke="#000000" stroke-width="4" stroke-miterlimit="10" width="328.7" height="108.6"/>
<rect x="698.2" y="356.1" fill="#FFFFFF" stroke="#000000" stroke-width="4" stroke-miterlimit="10" width="413.9" height="108.6"/>
<text transform="matrix(1 0 0 1 24.293 403.9859)"><tspan x="0" y="0" font-family="'MyriadPro-Regular'" font-size="30">A release of a stop portion</tspan><tspan x="0" y="36" font-family="'MyriadPro-Regular'" font-size="30">to a fricative portion</tspan></text>
<text transform="matrix(1 0 0 1 398.2935 420.7066)" font-family="'MyriadPro-Regular'" font-size="30">Affricate</text>
<text transform="matrix(1 0 0 1 726.1384 420.7066)" font-family="'MyriadPro-Regular'" font-size="30">/tʃ/, /dʒ/</text>
<rect x="4.1" y="696.8" fill="#FFFFFF" stroke="#000000" stroke-width="4" stroke-miterlimit="10" width="366.3" height="108.6"/>
<rect x="369.6" y="696.8" fill="#FFFFFF" stroke="#000000" stroke-width="4" stroke-miterlimit="10" width="328.7" height="108.6"/>
<rect x="698.2" y="696.8" fill="#FFFFFF" stroke="#000000" stroke-width="4" stroke-miterlimit="10" width="413.9" height="108.6"/>
<text transform="matrix(1 0 0 1 24.293 744.679)"><tspan x="0" y="0" font-family="'MyriadPro-Regular'" font-size="30">Retroflex blade or </tspan><tspan x="0" y="36" font-family="'MyriadPro-Regular'" font-size="30">bunched dorsum</tspan></text>
<text transform="matrix(1 0 0 1 398.2935 761.3997)" font-family="'MyriadPro-Regular'" font-size="30">Rhotic</text>
<text transform="matrix(1 0 0 1 726.1384 761.3997)" font-family="'MyriadPro-Regular'" font-size="30">/ɹ/</text>
<rect x="4.1" y="464.6" fill="#FFFFFF" stroke="#000000" stroke-width="4" stroke-miterlimit="10" width="366.3" height="144.1"/>
<rect x="369.6" y="464.7" fill="#FFFFFF" stroke="#000000" stroke-width="4" stroke-miterlimit="10" width="328.7" height="144.1"/>
<rect x="698.2" y="464.6" fill="#FFFFFF" stroke="#000000" stroke-width="4" stroke-miterlimit="10" width="413.9" height="144.1"/>
<text transform="matrix(1 0 0 1 24.293 511.2817)"><tspan x="0" y="0" font-family="'MyriadPro-Regular'" font-size="30">A gliding from a more </tspan><tspan x="0" y="36" font-family="'MyriadPro-Regular'" font-size="30">closed to a more open </tspan><tspan x="0" y="72" font-family="'MyriadPro-Regular'" font-size="30">position</tspan></text>
<text transform="matrix(1 0 0 1 398.2934 547.5782)" font-family="'MyriadPro-Regular'" font-size="30">Glide/Semivowel</text>
<text transform="matrix(1 0 0 1 726.1378 530.2816)" font-family="'MyriadPro-Regular'" font-size="30">/w/, /j/</text>
<rect x="4.1" y="608.7" fill="#FFFFFF" stroke="#000000" stroke-width="4" stroke-miterlimit="10" width="366.3" height="88"/>
<rect x="369.6" y="608.7" fill="#FFFFFF" stroke="#000000" stroke-width="4" stroke-miterlimit="10" width="328.7" height="88"/>
<rect x="698.2" y="608.7" fill="#FFFFFF" stroke="#000000" stroke-width="4" stroke-miterlimit="10" width="413.9" height="88"/>
<text transform="matrix(1 0 0 1 33.2931 661.3158)" font-family="'MyriadPro-Regular'" font-size="30">Lateral airflow</text>
<text transform="matrix(1 0 0 1 397.7936 661.3158)" font-family="'MyriadPro-Regular'" font-size="30">Lateral</text>
<text transform="matrix(1 0 0 1 726.1378 661.3158)" font-family="'MyriadPro-Regular'" font-size="30">/l/</text>
</svg>
