<?xml version="1.0" encoding="utf-8"?>
<!-- Generator: Adobe Illustrator 18.0.0, SVG Export Plug-In . SVG Version: 6.00 Build 0)  -->
<!DOCTYPE svg PUBLIC "-//W3C//DTD SVG 1.0//EN" "http://www.w3.org/TR/2001/REC-SVG-20010904/DTD/svg10.dtd">
<svg version="1.0" id="Layer_1" xmlns="http://www.w3.org/2000/svg" xmlns:xlink="http://www.w3.org/1999/xlink" x="0px" y="0px"
	 viewBox="156 577.8 789.3 1843.2" enable-background="new 156 577.8 789.3 1843.2" xml:space="preserve">
<rect x="169.7" y="587.8" fill="#195FF9" stroke="#000000" stroke-width="4" stroke-miterlimit="10" width="288" height="73.1"/>
<rect x="457.7" y="587.8" fill="#195FF9" stroke="#000000" stroke-width="4" stroke-miterlimit="10" width="482.3" height="73.1"/>
<text transform="matrix(1 0 0 1 193.8802 637.5214)" fill="#FFFFFF" font-family="'MyriadPro-Bold'" font-size="27.8568">Phonemes</text>
<text transform="matrix(1 0 0 1 492.7831 637.5215)" fill="#FFFFFF" font-family="'MyriadPro-Bold'" font-size="27.8568">Mispronunciation</text>
<rect x="169.7" y="660.8" fill="#FFFFFF" stroke="#000000" stroke-width="4" stroke-miterlimit="10" width="288" height="73.1"/>
<rect x="457.7" y="660.8" fill="#FFFFFF" stroke="#000000" stroke-width="4" stroke-miterlimit="10" width="482.3" height="73.1"/>
<text transform="matrix(1 0 0 1 193.8791 704.8158)" font-family="'MyriadPro-Regular'" font-size="27.8568">/b/</text>
<rect x="169.7" y="734" fill="#FFFFFF" stroke="#000000" stroke-width="4" stroke-miterlimit="10" width="288" height="73.1"/>
<rect x="457.7" y="734" fill="#FFFFFF" stroke="#000000" stroke-width="4" stroke-miterlimit="10" width="482.3" height="73.1"/>
<text transform="matrix(1 0 0 1 193.8792 780.561)" font-family="'MyriadPro-Regular'" font-size="27.8568">/d/</text>
<rect x="169.7" y="807.1" fill="#FFFFFF" stroke="#000000" stroke-width="4" stroke-miterlimit="10" width="288" height="73.1"/>
<rect x="457.7" y="807.1" fill="#FFFFFF" stroke="#000000" stroke-width="4" stroke-miterlimit="10" width="482.3" height="73.1"/>
<text transform="matrix(1 0 0 1 193.8794 855.306)" font-family="'MyriadPro-Regular'" font-size="27.8568">/ð/</text>
<rect x="169.7" y="880.2" fill="#FFFFFF" stroke="#000000" stroke-width="4" stroke-miterlimit="10" width="288" height="73.1"/>
<rect x="457.7" y="880.2" fill="#FFFFFF" stroke="#000000" stroke-width="4" stroke-miterlimit="10" width="482.3" height="73.1"/>
<text transform="matrix(1 0 0 1 193.8795 926.0515)" font-family="'MyriadPro-Regular'" font-size="27.8568">/dʒ/</text>
<rect x="169.7" y="953.3" fill="#FFFFFF" stroke="#000000" stroke-width="4" stroke-miterlimit="10" width="288" height="73.1"/>
<rect x="457.7" y="953.3" fill="#FFFFFF" stroke="#000000" stroke-width="4" stroke-miterlimit="10" width="482.3" height="73.1"/>
<text transform="matrix(1 0 0 1 193.8797 999.7656)" font-family="'MyriadPro-Regular'" font-size="27.8568">/f/</text>
<rect x="169.7" y="1026.3" fill="#FFFFFF" stroke="#000000" stroke-width="4" stroke-miterlimit="10" width="288" height="73.1"/>
<rect x="457.7" y="1026.3" fill="#FFFFFF" stroke="#000000" stroke-width="4" stroke-miterlimit="10" width="482.3" height="73.1"/>
<text transform="matrix(1 0 0 1 193.8791 1072.4784)" font-family="'MyriadPro-Regular'" font-size="27.8568">/g/</text>
<rect x="169.7" y="1099.4" fill="#FFFFFF" stroke="#000000" stroke-width="4" stroke-miterlimit="10" width="288" height="73.1"/>
<rect x="457.7" y="1099.4" fill="#FFFFFF" stroke="#000000" stroke-width="4" stroke-miterlimit="10" width="482.3" height="73.1"/>
<text transform="matrix(1 0 0 1 193.8798 1145.1923)" font-family="'MyriadPro-Regular'" font-size="27.8568">/h/</text>
<rect x="169.7" y="1172.5" fill="#FFFFFF" stroke="#000000" stroke-width="4" stroke-miterlimit="10" width="288" height="73.1"/>
<rect x="457.7" y="1172.5" fill="#FFFFFF" stroke="#000000" stroke-width="4" stroke-miterlimit="10" width="482.3" height="73.1"/>
<text transform="matrix(1 0 0 1 193.8791 1217.9052)" font-family="'MyriadPro-Regular'" font-size="27.8568">/j/</text>
<rect x="169.7" y="1245.6" fill="#FFFFFF" stroke="#000000" stroke-width="4" stroke-miterlimit="10" width="288" height="73.1"/>
<rect x="457.7" y="1245.6" fill="#FFFFFF" stroke="#000000" stroke-width="4" stroke-miterlimit="10" width="482.3" height="73.1"/>
<text transform="matrix(1 0 0 1 192.879 1292.4032)" font-family="'MyriadPro-Regular'" font-size="27.8568">/k/</text>
<rect x="169.7" y="1318.7" fill="#FFFFFF" stroke="#000000" stroke-width="4" stroke-miterlimit="10" width="288" height="73.1"/>
<rect x="457.7" y="1318.7" fill="#FFFFFF" stroke="#000000" stroke-width="4" stroke-miterlimit="10" width="482.3" height="73.1"/>
<text transform="matrix(1 0 0 1 192.8792 1365.3319)" font-family="'MyriadPro-Regular'" font-size="27.8568">/l/</text>
<rect x="169.7" y="1391.8" fill="#FFFFFF" stroke="#000000" stroke-width="4" stroke-miterlimit="10" width="288" height="73.1"/>
<rect x="457.7" y="1391.8" fill="#FFFFFF" stroke="#000000" stroke-width="4" stroke-miterlimit="10" width="482.3" height="73.1"/>
<text transform="matrix(1 0 0 1 193.88 1440.0458)" font-family="'MyriadPro-Regular'" font-size="27.8568">/m/</text>
<rect x="169.7" y="1464.8" fill="#FFFFFF" stroke="#000000" stroke-width="4" stroke-miterlimit="10" width="288" height="73.1"/>
<rect x="457.7" y="1464.8" fill="#FFFFFF" stroke="#000000" stroke-width="4" stroke-miterlimit="10" width="482.3" height="73.1"/>
<text transform="matrix(1 0 0 1 192.8793 1510.7588)" font-family="'MyriadPro-Regular'" font-size="27.8568">/n/</text>
<rect x="169.7" y="1537.9" fill="#FFFFFF" stroke="#000000" stroke-width="4" stroke-miterlimit="10" width="288" height="73.1"/>
<rect x="457.7" y="1537.9" fill="#FFFFFF" stroke="#000000" stroke-width="4" stroke-miterlimit="10" width="482.3" height="73.1"/>
<text transform="matrix(1 0 0 1 192.8795 1583.4725)" font-family="'MyriadPro-Regular'" font-size="27.8568">/ŋ/</text>
<rect x="169.7" y="1611" fill="#FFFFFF" stroke="#000000" stroke-width="4" stroke-miterlimit="10" width="288" height="73.1"/>
<rect x="457.7" y="1611" fill="#FFFFFF" stroke="#000000" stroke-width="4" stroke-miterlimit="10" width="482.3" height="73.1"/>
<text transform="matrix(1 0 0 1 192.8792 1661.1855)" font-family="'MyriadPro-Regular'" font-size="27.8568">/p/</text>
<rect x="169.7" y="1684.1" fill="#FFFFFF" stroke="#000000" stroke-width="4" stroke-miterlimit="10" width="288" height="73.1"/>
<rect x="457.7" y="1684.1" fill="#FFFFFF" stroke="#000000" stroke-width="4" stroke-miterlimit="10" width="482.3" height="73.1"/>
<text transform="matrix(1 0 0 1 192.8792 1730.8993)" font-family="'MyriadPro-Regular'" font-size="27.8568">/ɹ/</text>
<rect x="169.7" y="1757.2" fill="#FFFFFF" stroke="#000000" stroke-width="4" stroke-miterlimit="10" width="288" height="73.1"/>
<rect x="457.7" y="1757.2" fill="#FFFFFF" stroke="#000000" stroke-width="4" stroke-miterlimit="10" width="482.3" height="73.1"/>
<text transform="matrix(1 0 0 1 193.8801 1803.6121)" font-family="'MyriadPro-Regular'" font-size="27.8568">/s/</text>
<rect x="169.7" y="1830.3" fill="#FFFFFF" stroke="#000000" stroke-width="4" stroke-miterlimit="10" width="288" height="73.1"/>
<rect x="457.7" y="1830.3" fill="#FFFFFF" stroke="#000000" stroke-width="4" stroke-miterlimit="10" width="482.3" height="73.1"/>
<text transform="matrix(1 0 0 1 192.8792 1877.3259)" font-family="'MyriadPro-Regular'" font-size="27.8568">/ʃ/</text>
<rect x="169.7" y="1903.3" fill="#FFFFFF" stroke="#000000" stroke-width="4" stroke-miterlimit="10" width="288" height="73.1"/>
<rect x="457.7" y="1903.3" fill="#FFFFFF" stroke="#000000" stroke-width="4" stroke-miterlimit="10" width="482.3" height="73.1"/>
<text transform="matrix(1 0 0 1 192.8793 1944.1099)" font-family="'MyriadPro-Regular'" font-size="27.8568">/t/</text>
<rect x="169.7" y="1976.4" fill="#FFFFFF" stroke="#000000" stroke-width="4" stroke-miterlimit="10" width="288" height="73.1"/>
<rect x="457.7" y="1976.4" fill="#FFFFFF" stroke="#000000" stroke-width="4" stroke-miterlimit="10" width="482.3" height="73.1"/>
<text transform="matrix(1 0 0 1 193.8803 2021.7528)" font-family="'MyriadPro-Regular'" font-size="27.8568">/tʃ/</text>
<rect x="169.7" y="2049.5" fill="#FFFFFF" stroke="#000000" stroke-width="4" stroke-miterlimit="10" width="288" height="73.1"/>
<rect x="457.7" y="2049.5" fill="#FFFFFF" stroke="#000000" stroke-width="4" stroke-miterlimit="10" width="482.3" height="73.1"/>
<text transform="matrix(1 0 0 1 192.8792 2094.042)" font-family="'MyriadPro-Regular'" font-size="27.8568">/v/</text>
<rect x="169.7" y="2122.6" fill="#FFFFFF" stroke="#000000" stroke-width="4" stroke-miterlimit="10" width="288" height="73.1"/>
<rect x="457.7" y="2122.6" fill="#FFFFFF" stroke="#000000" stroke-width="4" stroke-miterlimit="10" width="482.3" height="73.1"/>
<text transform="matrix(1 0 0 1 192.8792 2167.7554)" font-family="'MyriadPro-Regular'" font-size="27.8568">/w/</text>
<rect x="169.7" y="2195.7" fill="#FFFFFF" stroke="#000000" stroke-width="4" stroke-miterlimit="10" width="288" height="73.1"/>
<rect x="457.7" y="2195.7" fill="#FFFFFF" stroke="#000000" stroke-width="4" stroke-miterlimit="10" width="482.3" height="73.1"/>
<text transform="matrix(1 0 0 1 192.8792 2240.4688)" font-family="'MyriadPro-Regular'" font-size="27.8568">/z/</text>
<rect x="169.7" y="2268.8" fill="#FFFFFF" stroke="#000000" stroke-width="4" stroke-miterlimit="10" width="288" height="73.1"/>
<rect x="457.7" y="2268.8" fill="#FFFFFF" stroke="#000000" stroke-width="4" stroke-miterlimit="10" width="482.3" height="73.1"/>
<text transform="matrix(1 0 0 1 193.8804 2317.1816)" font-family="'MyriadPro-Regular'" font-size="27.8568">/ʒ/</text>
<rect x="169.7" y="2341.8" fill="#FFFFFF" stroke="#000000" stroke-width="4" stroke-miterlimit="10" width="288" height="73.1"/>
<rect x="457.7" y="2341.8" fill="#FFFFFF" stroke="#000000" stroke-width="4" stroke-miterlimit="10" width="482.3" height="73.1"/>
<text transform="matrix(1 0 0 1 193.8805 2386.448)" font-family="'MyriadPro-Regular'" font-size="27.8568">/θ/</text>
<text transform="matrix(1 0 0 1 493.2826 704.8158)" font-family="'MyriadPro-Regular'" font-size="27.8568">/ɓ/</text>
<text transform="matrix(1 0 0 1 493.2827 780.561)" font-family="'MyriadPro-Regular'" font-size="27.8568">-</text>
<text transform="matrix(1 0 0 1 493.2829 855.306)" font-family="'MyriadPro-Regular'" font-size="27.8568">/d/</text>
<text transform="matrix(1 0 0 1 493.283 926.0515)" font-family="'MyriadPro-Regular'" font-size="27.8568">-</text>
<text transform="matrix(1 0 0 1 493.2832 999.7656)" font-family="'MyriadPro-Regular'" font-size="27.8568">/ʁ/, /p/</text>
<text transform="matrix(1 0 0 1 493.2826 1072.4784)" font-family="'MyriadPro-Regular'" font-size="27.8568">/dʒ/</text>
<text transform="matrix(1 0 0 1 493.2833 1145.1923)" font-family="'MyriadPro-Regular'" font-size="27.8568">pronounced in silent letter</text>
<text transform="matrix(1 0 0 1 493.2826 1217.9052)" font-family="'MyriadPro-Regular'" font-size="27.8568">-</text>
<text transform="matrix(1 0 0 1 492.2825 1292.4032)" font-family="'MyriadPro-Regular'" font-size="27.8568">-</text>
<text transform="matrix(1 0 0 1 492.2827 1365.3319)" font-family="'MyriadPro-Regular'" font-size="27.8568">-</text>
<text transform="matrix(1 0 0 1 493.2835 1440.0458)" font-family="'MyriadPro-Regular'" font-size="27.8568">-</text>
<text transform="matrix(1 0 0 1 492.2828 1510.7588)" font-family="'MyriadPro-Regular'" font-size="27.8568">-</text>
<text transform="matrix(1 0 0 1 492.283 1583.4725)" font-family="'MyriadPro-Regular'" font-size="27.8568">-</text>
<text transform="matrix(1 0 0 1 492.2827 1661.1855)" font-family="'MyriadPro-Regular'" font-size="27.8568">-</text>
<text transform="matrix(1 0 0 1 492.2827 1730.8993)" font-family="'MyriadPro-Regular'" font-size="27.8568">/r/</text>
<text transform="matrix(1 0 0 1 493.2836 1803.6121)" font-family="'MyriadPro-Regular'" font-size="27.8568">-</text>
<text transform="matrix(1 0 0 1 492.2827 1877.3259)" font-family="'MyriadPro-Regular'" font-size="27.8568">/s/, /sh/</text>
<text transform="matrix(1 0 0 1 492.2828 1944.1099)" font-family="'MyriadPro-Regular'" font-size="27.8568">/t̪/</text>
<text transform="matrix(1 0 0 1 493.2838 2021.7528)" font-family="'MyriadPro-Regular'" font-size="27.8568">-</text>
<text transform="matrix(1 0 0 1 492.2827 2094.042)" font-family="'MyriadPro-Regular'" font-size="27.8568">/f/, /p/</text>
<text transform="matrix(1 0 0 1 492.2827 2167.7554)" font-family="'MyriadPro-Regular'" font-size="27.8568">/β/, pronounced in silent letter</text>
<text transform="matrix(1 0 0 1 492.2827 2240.4688)" font-family="'MyriadPro-Regular'" font-size="27.8568">/s/</text>
<text transform="matrix(1 0 0 1 493.2839 2317.1816)" font-family="'MyriadPro-Regular'" font-size="27.8568">/z/, /ʃ/</text>
<text transform="matrix(1 0 0 1 493.284 2386.448)" font-family="'MyriadPro-Regular'" font-size="27.8568">/t/, /s/, /th/, /ð/, /t̪/</text>
</svg>
