<svg xmlns="http://www.w3.org/2000/svg" xmlns:xlink="http://www.w3.org/1999/xlink" width="142.318" height="109.832" viewBox="0 0 142.318 109.832">
  <defs>
    <linearGradient id="linear-gradient" x1="0.362" y1="2.795" x2="0.362" y2="4.487" gradientUnits="objectBoundingBox">
      <stop offset="0" stop-color="#97aaaa"/>
      <stop offset="1" stop-color="#e8efee"/>
    </linearGradient>
    <linearGradient id="linear-gradient-2" x1="0.155" y1="5.968" x2="0.155" y2="6.877" xlink:href="#linear-gradient"/>
    <linearGradient id="linear-gradient-3" x1="0.463" y1="1.146" x2="0.463" y2="0.151" gradientUnits="objectBoundingBox">
      <stop offset="0" stop-color="#fff"/>
      <stop offset="1" stop-color="#e8efee"/>
    </linearGradient>
    <linearGradient id="linear-gradient-4" x1="0.244" y1="0.069" x2="1.112" y2="-0.598" gradientUnits="objectBoundingBox">
      <stop offset="0" stop-color="#c2cece" stop-opacity="0"/>
      <stop offset="0.179" stop-color="#afbcbc" stop-opacity="0.18"/>
      <stop offset="1" stop-color="#5b6a6a"/>
    </linearGradient>
    <linearGradient id="linear-gradient-5" x1="0.512" y1="0.05" x2="-0.128" y2="0.34" xlink:href="#linear-gradient-4"/>
    <linearGradient id="linear-gradient-6" x1="0.488" y1="0.274" x2="-0.258" y2="0.864" xlink:href="#linear-gradient-4"/>
    <linearGradient id="linear-gradient-7" x1="0.334" y1="1.575" x2="0.334" y2="0.329" xlink:href="#linear-gradient-3"/>
    <linearGradient id="linear-gradient-8" x1="0.376" y1="0.184" x2="-0.162" y2="0.91" xlink:href="#linear-gradient-4"/>
    <linearGradient id="linear-gradient-9" x1="0.42" y1="1.714" x2="0.42" y2="0.282" xlink:href="#linear-gradient-3"/>
    <linearGradient id="linear-gradient-10" x1="0.619" y1="0.569" x2="-0.044" y2="1.231" xlink:href="#linear-gradient-4"/>
    <linearGradient id="linear-gradient-11" x1="0.38" y1="1.403" x2="0.38" y2="0.808" gradientUnits="objectBoundingBox">
      <stop offset="0" stop-color="#5b6a6a"/>
      <stop offset="1" stop-color="#303033"/>
    </linearGradient>
    <linearGradient id="linear-gradient-12" x1="0.686" y1="-1.789" x2="-0.249" y2="0.383" xlink:href="#linear-gradient-4"/>
    <linearGradient id="linear-gradient-13" x1="0.353" y1="-0.847" x2="0.353" y2="-1.653" xlink:href="#linear-gradient-3"/>
    <linearGradient id="linear-gradient-14" x1="0.3" y1="-2.144" x2="0.3" y2="-1.279" xlink:href="#linear-gradient"/>
    <linearGradient id="linear-gradient-15" x1="0.616" y1="-2.074" x2="0.031" y2="-1.488" xlink:href="#linear-gradient-4"/>
    <linearGradient id="linear-gradient-16" x1="0.278" y1="-1.758" x2="0.278" y2="-2.622" xlink:href="#linear-gradient-11"/>
    <linearGradient id="linear-gradient-17" x1="0.273" y1="-0.847" x2="0.273" y2="-1.653" xlink:href="#linear-gradient-3"/>
    <linearGradient id="linear-gradient-18" x1="0.191" y1="-2.144" x2="0.191" y2="-1.279" xlink:href="#linear-gradient"/>
    <linearGradient id="linear-gradient-19" x1="0.52" y1="-2.074" x2="-0.065" y2="-1.488" xlink:href="#linear-gradient-4"/>
    <linearGradient id="linear-gradient-20" x1="0.158" y1="-1.758" x2="0.158" y2="-2.622" xlink:href="#linear-gradient-11"/>
    <linearGradient id="linear-gradient-21" x1="0.216" y1="1.966" x2="0.216" y2="1.119" xlink:href="#linear-gradient-11"/>
    <linearGradient id="linear-gradient-22" x1="0.221" y1="-0.586" x2="-0.436" y2="0.222" xlink:href="#linear-gradient-4"/>
    <linearGradient id="linear-gradient-23" x1="0.184" y1="0.965" x2="0.184" y2="0.119" xlink:href="#linear-gradient-11"/>
    <linearGradient id="linear-gradient-24" x1="0.242" y1="0.878" x2="-0.567" y2="1.534" xlink:href="#linear-gradient-4"/>
    <linearGradient id="linear-gradient-25" x1="0.368" y1="1.181" x2="-0.1" y2="1.583" xlink:href="#linear-gradient-11"/>
    <linearGradient id="linear-gradient-26" x1="0.38" y1="-0.85" x2="-0.023" y2="-0.387" xlink:href="#linear-gradient-11"/>
    <linearGradient id="linear-gradient-27" x1="0.239" y1="1.691" x2="-0.562" y2="2.492" xlink:href="#linear-gradient-4"/>
    <linearGradient id="linear-gradient-28" x1="-0.441" y1="-0.001" x2="0.333" y2="-0.776" gradientUnits="objectBoundingBox">
      <stop offset="0" stop-color="#00a6f9"/>
      <stop offset="1" stop-color="#0071e2"/>
    </linearGradient>
    <linearGradient id="linear-gradient-29" x1="0.274" y1="0.627" x2="-0.528" y2="1.428" xlink:href="#linear-gradient-4"/>
    <linearGradient id="linear-gradient-30" x1="0.441" y1="3.089" x2="-0.026" y2="3.492" xlink:href="#linear-gradient-11"/>
    <linearGradient id="linear-gradient-31" x1="0.441" y1="1.357" x2="0.038" y2="1.82" xlink:href="#linear-gradient-11"/>
    <linearGradient id="linear-gradient-32" x1="-0.441" y1="4.755" x2="0.333" y2="3.981" gradientUnits="objectBoundingBox">
      <stop offset="0" stop-color="#7bd101"/>
      <stop offset="0.262" stop-color="#5ccd0b"/>
      <stop offset="1" stop-color="#08c126"/>
    </linearGradient>
    <linearGradient id="linear-gradient-33" x1="-0.365" y1="2.377" x2="0.41" y2="1.603" gradientUnits="objectBoundingBox">
      <stop offset="0" stop-color="#ffcf95"/>
      <stop offset="0.427" stop-color="#ffc954"/>
      <stop offset="1" stop-color="#ffc200"/>
    </linearGradient>
    <linearGradient id="linear-gradient-34" x1="-0.518" y1="2.377" x2="0.256" y2="1.603" gradientUnits="objectBoundingBox">
      <stop offset="0" stop-color="#d63305"/>
      <stop offset="1" stop-color="#960000"/>
    </linearGradient>
    <linearGradient id="linear-gradient-35" x1="-0.307" y1="-2.559" x2="-0.307" y2="-4.24" xlink:href="#linear-gradient-11"/>
    <linearGradient id="linear-gradient-36" x1="-0.45" y1="-2.559" x2="-0.45" y2="-4.24" xlink:href="#linear-gradient-11"/>
  </defs>
  <g id="games" transform="translate(0 -58.435)">
    <path id="Path_304" data-name="Path 304" d="M209.8,85.03h-4.271V81.148a1.165,1.165,0,0,0-1.165-1.165h-9.867a5.436,5.436,0,0,1-5.436-5.436v-.194a5.436,5.436,0,0,1,5.436-5.436h27.929a1.2,1.2,0,0,0,1.188-.933,1.167,1.167,0,0,0-1.142-1.4H210.962a5.436,5.436,0,0,1-5.436-5.436V60.57a2.135,2.135,0,0,1,2.135-2.135h0A2.135,2.135,0,0,1,209.8,60.57v.582a1.165,1.165,0,0,0,1.165,1.165h11.35a5.54,5.54,0,0,1,5.586,5.162,5.441,5.441,0,0,1-5.429,5.709H194.494a1.165,1.165,0,0,0-1.165,1.165v.194a1.165,1.165,0,0,0,1.165,1.165h9.867a5.436,5.436,0,0,1,5.436,5.436v3.883h0Z" transform="translate(-136.507)" fill="url(#linear-gradient)"/>
    <path id="Path_305" data-name="Path 305" d="M243.7,153.9H228.322l2.054-7.437a3,3,0,0,1,2.895-2.2h5.48a3,3,0,0,1,2.9,2.2Z" transform="translate(-164.857 -61.965)" fill="url(#linear-gradient-2)"/>
    <path id="Path_306" data-name="Path 306" d="M141.413,199.626a22.3,22.3,0,0,1-9.66,25.252,21.205,21.205,0,0,1-2.5,1.34q-.326.151-.664.291a22.307,22.307,0,0,1-24.27-4.787l-.039-.039-.012-.012-.163-.163c-.148-.148-.295-.291-.443-.435s-.295-.287-.446-.427c-.132-.128-.268-.252-.4-.373-.085-.081-.175-.163-.26-.241-.035-.031-.074-.062-.109-.093a.233.233,0,0,0-.031-.031c-.12-.109-.241-.213-.361-.322-.221-.194-.443-.388-.668-.578-.256-.221-.52-.439-.78-.648-.035-.031-.078-.062-.116-.1a.186.186,0,0,0-.019-.015l-.008-.008s-.008,0-.015-.012l-.225-.178-.058-.046q-.239-.192-.478-.373a.635.635,0,0,0-.058-.043c-.043-.039-.089-.074-.136-.109l-.093-.07a.7.7,0,0,0-.066-.05c-.132-.105-.268-.2-.4-.3-.058-.046-.12-.089-.182-.132-.105-.081-.213-.159-.322-.237-.031-.023-.062-.046-.093-.066-.148-.109-.291-.21-.443-.315-.074-.05-.143-.1-.217-.148a.151.151,0,0,0-.05-.035c-.027-.019-.05-.039-.078-.058h0c-.361-.249-.726-.489-1.091-.726-.093-.062-.187-.12-.284-.183-.078-.05-.159-.1-.241-.148a.357.357,0,0,0-.089-.054v0h0c-.039-.027-.081-.054-.124-.081l-.268-.163c-.136-.085-.272-.167-.412-.245s-.264-.163-.4-.241c-.012-.008-.023-.012-.035-.019s-.05-.031-.081-.046l-.143-.081c-.295-.171-.59-.334-.889-.5,0,0-.012,0-.015-.012h0c-.3-.163-.61-.326-.916-.481-.178-.093-.357-.182-.536-.272-.151-.078-.3-.152-.458-.225a.156.156,0,0,0-.035-.019s0,0,0,0c-.116-.058-.229-.113-.346-.167a.054.054,0,0,0-.023-.008c-.085-.043-.175-.085-.264-.128l-.567-.256c-.085-.043-.175-.081-.26-.116l-.225-.1a.051.051,0,0,0-.031-.012.015.015,0,0,0-.015-.008c-.043-.019-.089-.039-.132-.062-.078-.031-.159-.066-.241-.1l-.113-.046h0c-.019-.008-.039-.019-.054-.027h0c-.089-.039-.178-.074-.268-.109-.05-.023-.1-.043-.148-.062-.066-.027-.132-.054-.2-.078-.132-.054-.264-.109-.4-.159l-.249-.1a.5.5,0,0,1-.07-.027c-.241-.089-.481-.182-.726-.268l-.124-.046c-.311-.113-.625-.221-.94-.33l-.384-.128c-.229-.074-.454-.143-.684-.213l-.454-.14c-.237-.07-.47-.136-.707-.206-.054-.015-.105-.031-.155-.043-.225-.062-.45-.124-.675-.178h0a.028.028,0,0,0-.023-.008.014.014,0,0,0-.012,0c-.237-.062-.474-.124-.714-.183l-.446-.1c-.21-.05-.423-.1-.633-.143s-.4-.089-.606-.128l-.446-.093c-.256-.05-.513-.1-.773-.143-.124-.019-.249-.043-.373-.066-.319-.054-.641-.105-.959-.151-.575-.085-1.153-.159-1.728-.221-.217-.027-.435-.046-.648-.07-.33-.031-.66-.058-.994-.081-.1-.012-.2-.019-.3-.023-.307-.023-.613-.043-.924-.054-.342-.019-.684-.031-1.021-.039-.07,0-.136,0-.2,0-.357-.012-.714-.015-1.072-.015h-.027c-.237,0-.47,0-.7.008h-.105c-.109,0-.213,0-.322.008h-.074c-.035,0-.074,0-.109,0a.358.358,0,0,0-.066,0c-.1,0-.206,0-.307.008-.12,0-.237.008-.357.015l-.272.012c-.046,0-.093,0-.14.008a.317.317,0,0,0-.085.008.99.99,0,0,0-.151.008.8.8,0,0,0-.1,0c-.163.008-.326.019-.489.031-.019,0-.043,0-.062,0-.035,0-.07,0-.105.008h0l-.284.023-.578.046c-.023,0-.046,0-.07.008-.089.008-.175.015-.26.027-.178.015-.353.035-.528.054v0s0,0,0,0h0a.575.575,0,0,0-.081.008c-.105.008-.21.019-.311.035-.3.035-.6.074-.893.116l-.093.012a.383.383,0,0,0-.066.008l-.155.023a.022.022,0,0,0-.015,0c-.124.015-.245.031-.369.054h-.008l-.284.046c-.113.015-.225.035-.338.054-.291.046-.578.1-.87.155-.151.027-.3.058-.45.085-.12.023-.237.046-.353.074a.107.107,0,0,0-.05.012,1.283,1.283,0,0,0-.171.035c-.066.012-.132.027-.194.039s-.116.027-.171.039h0c-.058.012-.12.027-.175.039a.593.593,0,0,0-.078.015c-.1.023-.19.043-.284.066l-.2.046-.093.023-.338.081c-.027.008-.054.012-.081.019-.14.035-.28.07-.419.109a1.023,1.023,0,0,0-.109.027.267.267,0,0,0-.05.015h0c-.4.1-.8.213-1.192.326-.046.015-.093.027-.14.043l-.046.012c-.039.012-.078.023-.116.039,0,0,0,0,0,0-.043.012-.089.023-.132.039-.213.062-.423.128-.637.2-.113.031-.225.07-.338.109-.237.074-.47.151-.7.233-.07.023-.136.046-.2.066l-.167.058c-.054.019-.109.039-.163.062-.151.05-.307.105-.454.163l-.159.058c-.046.015-.1.035-.143.054-.1.035-.2.074-.3.113-.066.023-.132.05-.2.074-.113.046-.221.089-.33.136-.078.027-.151.058-.225.089a.964.964,0,0,0-.113.043.57.57,0,0,0-.085.039c-.062.023-.124.046-.187.074-.148.058-.291.12-.431.182-.05.023-.105.043-.155.066s-.081.035-.12.054h0a.507.507,0,0,0-.066.031c-.05.019-.1.043-.151.062s-.105.046-.159.074c-.089.039-.178.078-.264.116-.256.116-.508.233-.761.353-.07.031-.136.066-.2.1a.9.9,0,0,0-.109.05s0,0,0,0c-.085.039-.167.081-.252.128-.066.031-.128.062-.19.093a.884.884,0,0,0-.136.07.094.094,0,0,0-.043.023,1.921,1.921,0,0,0-.182.085l-.315.163c-.532.272-1.056.559-1.576.854-.182.1-.369.21-.551.319l-.167.1c-.1.058-.2.12-.3.178l-.132.085a.067.067,0,0,0-.027.015c-.05.027-.1.058-.144.085s-.081.05-.12.074c-.062.035-.12.074-.182.116-.182.109-.361.221-.54.338q-.646.408-1.273.85c-.229.155-.458.315-.684.478-.031.023-.062.043-.093.066-.109.078-.217.155-.322.237-.249.178-.493.361-.738.547,0,0-.008,0-.008.008-.3.229-.594.458-.889.7-.05.035-.1.078-.148.116-.287.233-.575.47-.858.714-.225.19-.446.381-.668.578-.12.105-.241.213-.361.322-.268.241-.536.485-.8.738-.143.132-.287.272-.427.408s-.28.276-.419.415a.428.428,0,0,1-.043.039l-.159.159c-.035.039-.07.074-.1.109-.085.085-.171.171-.256.26.035-.043.078-.085.116-.124A22.29,22.29,0,0,1,.986,199.358c.058-.194.12-.388.187-.578l11.337-35.09c.074-.237.148-.474.225-.71.031-.1.066-.2.1-.3.074-.221.151-.439.233-.66.015-.043.031-.089.05-.136.1-.272.206-.543.319-.815a.014.014,0,0,1,0-.012c.093-.237.194-.474.3-.71.023-.058.046-.116.074-.175.116-.268.241-.536.365-.8q.39-.833.839-1.638c.148-.268.3-.532.454-.8A31.341,31.341,0,0,1,58.2,145.668a25.62,25.62,0,0,0,6.263,2.6,25.909,25.909,0,0,0,13.387,0,25.624,25.624,0,0,0,6.263-2.6,31.341,31.341,0,0,1,42.727,11.271c.155.264.307.528.454.8.3.536.578,1.083.839,1.638.124.26.249.528.365.8.039.081.074.167.105.249.089.194.171.392.249.59a1.458,1.458,0,0,1,.07.178c.1.229.187.462.272.695.221.594.423,1.2.61,1.809l1.569,4.861,9.652,29.868c.012.035.023.066.035.1,0,.012.008.019.012.031l.322,1C141.4,199.575,141.405,199.6,141.413,199.626Z" transform="translate(0 -59.943)" fill="url(#linear-gradient-3)"/>
    <path id="Path_307" data-name="Path 307" d="M54.685,251.12c-.109.039-.217.081-.322.124a1.578,1.578,0,0,0-.175.07c-.008,0-.015,0-.023,0-.113.046-.221.089-.33.136-.078.027-.151.058-.225.089a.961.961,0,0,0-.113.043c-.093.035-.182.074-.272.113-.148.058-.291.12-.431.182-.05.023-.1.043-.155.066a1.363,1.363,0,0,0-.132.054c-.21.093-.423.187-.633.284-.252.113-.508.229-.761.353-.012,0-.023.012-.035.015a1.675,1.675,0,0,0-.167.081.905.905,0,0,0-.109.05s0,0,0,0q-.221.105-.443.221c-.046.019-.093.043-.14.066-.074.035-.148.074-.221.113l-.315.163-.074.039q-.757.39-1.5.815c-.182.1-.369.21-.551.319l-.167.1c-.2.116-.4.241-.606.365-.043.023-.081.05-.12.074l-.054.031c-.043.027-.085.054-.132.081-.178.113-.357.225-.536.342q-.646.408-1.273.85c-.229.155-.458.315-.684.478-.031.023-.062.043-.093.066-.109.078-.217.155-.322.237-.248.178-.493.361-.738.547,0,0-.008,0-.008.008-.3.229-.594.458-.889.7-.05.035-.1.078-.148.116-.287.233-.575.47-.858.714-.225.19-.446.38-.668.578-.12.105-.241.213-.361.322-.268.241-.536.485-.8.738-.229.213-.458.435-.684.652a.738.738,0,0,1-.054.058l-.151.151c-.128.124-.252.252-.377.381l-.023.023A22.288,22.288,0,0,1,.986,239.578c.058-.194.12-.388.187-.578l11.337-35.09c.074-.237.148-.474.225-.71.031-.1.066-.2.1-.3.074-.221.151-.439.233-.66.015-.043.031-.089.05-.136.1-.272.206-.543.319-.815a.014.014,0,0,1,0-.012c.093-.237.194-.474.3-.71.023-.058.046-.116.074-.175.116-.268.241-.536.365-.8q.4-.833.839-1.638c.148-.268.3-.532.454-.8A28.3,28.3,0,0,0,39.071,237c.311.023.621.039.936.054.415.019.835.027,1.254.027.458,0,.916-.012,1.37-.035.571-.027,1.134-.07,1.7-.136q.7-.07,1.386-.187a27.976,27.976,0,0,0,2.99-.641Z" transform="translate(0 -100.163)" fill="url(#linear-gradient-4)"/>
    <path id="Path_308" data-name="Path 308" d="M359.368,265.1a21.209,21.209,0,0,1-2.5,1.34q-.326.151-.664.291a22.307,22.307,0,0,1-24.27-4.787l-.039-.039-.012-.012-.163-.163c-.148-.148-.295-.291-.443-.435s-.3-.287-.446-.427c-.132-.128-.268-.252-.4-.373-.085-.081-.175-.163-.26-.241-.046-.043-.093-.085-.14-.124-.12-.109-.241-.214-.361-.322-.221-.2-.443-.388-.668-.578-.256-.221-.52-.439-.78-.648-.035-.031-.078-.062-.116-.1a.187.187,0,0,0-.019-.015l-.008-.008a.048.048,0,0,1-.015-.012l-.225-.178-.058-.046q-.239-.192-.478-.373c-.062-.054-.128-.1-.19-.151,0,0,0,0,0,0l-.093-.07a.692.692,0,0,0-.066-.05c-.132-.105-.268-.2-.4-.3-.058-.046-.12-.089-.182-.132-.105-.081-.213-.159-.322-.237-.031-.023-.062-.046-.093-.066l-.443-.315c-.074-.05-.143-.1-.217-.148a.152.152,0,0,0-.05-.035l-.081-.058c-.361-.249-.726-.489-1.091-.726-.093-.062-.187-.12-.284-.183s-.217-.136-.326-.206h0v0c-.043-.023-.085-.05-.128-.078l-.268-.163c-.272-.167-.54-.326-.811-.485-.012-.008-.023-.012-.035-.019s-.05-.031-.081-.046l-.143-.081c-.3-.175-.6-.342-.9-.508h0c-.3-.167-.61-.326-.916-.481-.178-.093-.357-.182-.536-.272-.151-.078-.307-.151-.458-.225a.154.154,0,0,0-.035-.019s0,0,0,0c-.116-.058-.229-.113-.346-.167-.1-.046-.194-.089-.287-.136l-.567-.256c-.085-.043-.175-.081-.26-.116s-.163-.074-.245-.109l-.159-.07c-.078-.031-.159-.066-.241-.1l-.113-.046h0a.42.42,0,0,0-.058-.027c-.089-.039-.178-.074-.268-.109-.05-.023-.1-.043-.148-.062-.066-.027-.132-.054-.2-.078-.132-.054-.264-.109-.4-.159-.081-.031-.163-.066-.249-.1a.5.5,0,0,1-.07-.027c-.089-.035-.183-.07-.276-.105l5.983-15.033a28.049,28.049,0,0,0,2.99.641.293.293,0,0,0,.081.012c.431.074.866.128,1.3.175.291.035.582.062.873.085.276.019.551.039.831.05.062,0,.12.008.182.008.392.019.784.027,1.18.027.419,0,.839-.008,1.254-.027.443-.019.881-.05,1.32-.089a28.28,28.28,0,0,0,25.71-28.167c0-.722-.027-1.44-.081-2.147a28.172,28.172,0,0,0-2.415-9.5c.155.264.307.528.454.8.295.536.575,1.083.839,1.638.124.26.249.528.365.8.039.081.074.167.105.249.089.194.171.392.249.59a1.457,1.457,0,0,1,.07.178c.1.229.187.462.272.695.221.594.423,1.2.61,1.809l1.569,4.861,9.652,29.868c.012.035.023.066.035.1l.334,1.033c.008.023.015.046.023.074a22.3,22.3,0,0,1-9.66,25.252Z" transform="translate(-227.615 -100.162)" fill="url(#linear-gradient-5)"/>
    <path id="Path_309" data-name="Path 309" d="M347.928,214.165a22.3,22.3,0,0,1-9.66,25.252,21.206,21.206,0,0,1-2.5,1.34q-.326.151-.664.291l-29.135-29.134-.594-.594-8.514-8.514,0,0-3.494-3.494a.178.178,0,0,1-.027-.027c-.28-.248-.555-.5-.819-.761q-.2-.2-.4-.4-.588-.6-1.122-1.246c-.353-.423-.687-.854-1.006-1.3a.082.082,0,0,1-.019-.031c-.373-.528-.722-1.068-1.044-1.627-.152-.252-.291-.508-.431-.769-.085-.167-.171-.334-.256-.5-.078-.151-.151-.311-.225-.466-.05-.109-.1-.217-.148-.326s-.105-.237-.155-.357-.113-.268-.167-.4c-.206-.513-.392-1.04-.559-1.572q-.093-.3-.175-.594c-.05-.187-.1-.373-.148-.559-.074-.3-.143-.606-.206-.912-.039-.175-.07-.349-.1-.528-.039-.2-.07-.408-.1-.613-.023-.143-.043-.287-.058-.435a20.909,20.909,0,0,1-.178-2.76,21.524,21.524,0,0,1,21.525-21.525c.256,0,.508,0,.761.015.148,0,.295.008.439.019q.28.012.559.035c.33.027.664.062.99.105.152.019.3.039.446.062.062.008.124.015.183.027.109.015.217.035.322.054.361.062.719.132,1.072.213.159.035.322.074.481.116.373.093.742.194,1.107.307l.043.012c.338.109.672.221,1,.342a.963.963,0,0,1,.113.043c.155.058.311.116.462.178.178.07.353.14.528.217s.326.143.489.217a.547.547,0,0,1,.07.031c.155.074.315.148.466.225.182.085.361.178.54.276.155.081.307.167.458.252.167.093.326.187.489.284s.322.194.478.295a20.849,20.849,0,0,1,1.833,1.3,21.651,21.651,0,0,1,2.838,2.691l.058.058,12,12.009,2.116,2.116,9.652,29.868c.012.035.023.066.035.1l.334,1.033C347.912,214.114,347.92,214.138,347.928,214.165Z" transform="translate(-206.515 -74.482)" fill="url(#linear-gradient-6)"/>
    <circle id="Ellipse_14" data-name="Ellipse 14" cx="21.526" cy="21.526" r="21.526" transform="translate(79.502 87.11)" fill="url(#linear-gradient-7)"/>
    <path id="Path_310" data-name="Path 310" d="M154.474,214.783l25.978,25.978q-.326.151-.664.291a22.307,22.307,0,0,1-24.27-4.787c.1.1.194.2.291.3-.109-.113-.221-.225-.33-.338l-.012-.012-.163-.163c-.291-.291-.59-.578-.889-.862-.132-.124-.264-.249-.4-.373s-.245-.225-.369-.334a.233.233,0,0,0-.031-.031c-.12-.109-.241-.213-.361-.322-.221-.194-.443-.388-.668-.578-.256-.221-.52-.439-.78-.648-.035-.031-.078-.062-.116-.1a.188.188,0,0,0-.019-.015l-.008-.008s-.008,0-.015-.012l-.225-.178-.058-.046q-.239-.192-.478-.373c-.062-.054-.128-.1-.19-.152,0,0,0,0,0,0l-.093-.07a.692.692,0,0,0-.066-.05c-.132-.105-.268-.2-.4-.3-.058-.046-.12-.089-.182-.132-.105-.081-.213-.159-.322-.237-.031-.023-.062-.046-.093-.066l-.443-.315c-.074-.05-.143-.1-.217-.148-.043-.035-.085-.062-.128-.093h0c-.361-.248-.726-.489-1.091-.726-.175-.113-.35-.225-.524-.33a.357.357,0,0,0-.089-.054v0h0c-.039-.027-.081-.054-.124-.081l-.268-.163c-.136-.085-.272-.167-.412-.245s-.264-.163-.4-.241c-.012-.008-.023-.012-.035-.019s-.05-.031-.081-.046l-.143-.081c-.295-.171-.59-.334-.889-.5l-.019-.012c-.3-.163-.61-.326-.916-.481-.178-.093-.357-.182-.536-.272-.151-.078-.307-.151-.458-.225a.156.156,0,0,0-.035-.019s0,0,0,0c-.116-.058-.229-.113-.346-.167a.054.054,0,0,0-.023-.008c-.276-.132-.555-.26-.831-.384-.163-.074-.322-.143-.485-.213a.051.051,0,0,0-.031-.012.015.015,0,0,0-.015-.008c-.124-.058-.249-.109-.373-.163l-.113-.046c-.019-.008-.039-.019-.058-.027h0c-.089-.039-.178-.074-.268-.109-.05-.023-.1-.043-.148-.062-.066-.027-.132-.054-.2-.078-.132-.054-.264-.109-.4-.159-.081-.031-.163-.066-.249-.1a.5.5,0,0,1-.07-.027c-.241-.089-.481-.182-.726-.268l-.124-.046c-.311-.113-.625-.221-.94-.33l-.384-.128c-.229-.074-.454-.143-.684-.213l-.454-.14c-.237-.07-.47-.14-.707-.206-.054-.015-.105-.031-.155-.043-.225-.062-.45-.124-.675-.178h0a.028.028,0,0,0-.023-.008.014.014,0,0,0-.012,0c-.237-.066-.474-.124-.714-.183-.148-.039-.3-.074-.446-.1-.21-.05-.423-.1-.633-.143s-.4-.089-.606-.128c-.148-.035-.3-.062-.446-.093-.256-.05-.516-.1-.773-.143-.124-.019-.249-.043-.373-.066-.319-.054-.641-.105-.959-.151-.575-.085-1.153-.159-1.728-.221-.217-.027-.435-.046-.648-.07-.33-.031-.664-.058-.994-.081-.1-.012-.2-.019-.3-.023-.307-.023-.617-.043-.924-.054-.338-.019-.68-.031-1.021-.039-.07,0-.136,0-.2,0-.357-.012-.714-.015-1.072-.015h-.027c-.233,0-.47,0-.7.008h-.167c-.113,0-.221,0-.334.008-.035,0-.074,0-.109,0a.358.358,0,0,0-.066,0q-.332.006-.664.023l-.272.012c-.078,0-.151.008-.225.015a.99.99,0,0,0-.151.008c-.194.008-.392.019-.586.035-.019,0-.043,0-.062,0-.035,0-.07,0-.105.008h0l-.284.023c-.217.015-.435.035-.648.054-.089.008-.175.015-.26.027-.178.015-.353.035-.528.058,0,0,0,0,0,0h0a.575.575,0,0,0-.081.008c-.105.008-.21.023-.311.035-.3.035-.6.074-.893.116l-.093.012a.383.383,0,0,0-.066.008l-.155.023a.022.022,0,0,0-.015,0c-.124.015-.248.035-.369.054-.1.015-.194.027-.291.046-.113.015-.225.035-.338.054-.291.046-.578.1-.87.155-.151.027-.3.058-.45.085-.12.023-.237.046-.353.074a.107.107,0,0,0-.05.012,1.283,1.283,0,0,0-.171.035c-.066.012-.132.027-.194.039s-.116.023-.171.039h0c-.058.012-.12.027-.175.039-.027,0-.054.012-.078.015-.1.023-.19.043-.284.066l-.2.046-.093.023-.338.081c-.027.008-.054.012-.081.019-.14.035-.28.07-.419.109a1.022,1.022,0,0,0-.109.027l-.05.012v0h0c-.4.1-.8.213-1.192.326-.046.015-.093.027-.14.043l-.046.012c-.039.012-.081.023-.12.039s-.089.023-.132.039c-.213.062-.423.128-.637.2-.113.031-.225.07-.338.109-.233.074-.47.151-.7.233-.07.023-.136.046-.2.066s-.113.039-.167.058-.109.039-.163.062c-.151.05-.3.105-.454.163l-.159.058c-.046.015-.1.035-.143.054a1.4,1.4,0,0,0-.163.066c-.225.081-.446.167-.668.256-.078.027-.151.058-.225.089L94.9,215.954,94,215.061l-3.048-3.048-.684-.684L78.257,199.313a.179.179,0,0,1-.027-.027c-.276-.245-.547-.493-.808-.753h0s-.008,0-.008-.008q-.2-.2-.4-.4-.588-.6-1.122-1.246c-.353-.423-.687-.854-1.006-1.3a.082.082,0,0,1-.019-.031,21.969,21.969,0,0,1-1.475-2.4c-.085-.167-.171-.334-.256-.5-.078-.151-.151-.311-.225-.466-.05-.109-.1-.217-.148-.326s-.105-.237-.155-.357-.113-.268-.167-.4c-.206-.513-.392-1.04-.559-1.572q-.093-.3-.175-.594c-.05-.187-.1-.373-.148-.559-.074-.3-.143-.606-.206-.912-.039-.175-.07-.349-.1-.528-.039-.2-.07-.408-.1-.613-.023-.143-.043-.287-.058-.435a20.91,20.91,0,0,1-.178-2.76A21.524,21.524,0,0,1,92.44,161.6c.256,0,.508,0,.761.015.148,0,.295.008.439.019q.28.012.559.035c.33.027.664.062.99.105.151.019.3.039.446.062.062.008.124.015.182.027.109.015.217.035.322.054.361.062.719.132,1.072.213.159.035.322.074.481.116.373.093.742.194,1.107.307l.043.012c.338.109.672.221,1,.342a.967.967,0,0,1,.113.043c.155.058.311.116.462.178.178.07.353.14.528.217s.326.143.489.217a.529.529,0,0,1,.07.031c.155.074.315.148.466.225.182.085.361.178.54.276.155.081.307.167.458.252.167.093.326.187.489.284s.322.194.478.295a20.85,20.85,0,0,1,1.833,1.3,21.654,21.654,0,0,1,2.838,2.691l.058.058,24.953,24.953,7.823,7.823,1.184,1.184,8.324,8.324.128.128Z" transform="translate(-51.203 -74.488)" fill="url(#linear-gradient-8)"/>
    <circle id="Ellipse_15" data-name="Ellipse 15" cx="21.526" cy="21.526" r="21.526" transform="translate(19.711 87.11)" fill="url(#linear-gradient-9)"/>
    <path id="Path_311" data-name="Path 311" d="M132.333,207.365l-18.078-18.071a3.26,3.26,0,0,0-5.78,2.067v7.787h-7.787a3.26,3.26,0,0,0-2.067,5.78l18.066,18.08A21.213,21.213,0,0,0,132.333,207.365Z" transform="translate(-70.347 -93.624)" fill="url(#linear-gradient-10)"/>
    <path id="Path_312" data-name="Path 312" d="M122.782,199.149h-7.787v-7.787a3.26,3.26,0,0,0-6.519,0v7.787h-7.787a3.26,3.26,0,1,0,0,6.519h7.787v7.787a3.26,3.26,0,0,0,6.519,0v-7.787h7.787a3.26,3.26,0,1,0,0-6.519Z" transform="translate(-70.347 -93.624)" fill="url(#linear-gradient-11)"/>
    <path id="Path_313" data-name="Path 313" d="M232.738,346.365a21.215,21.215,0,0,1-2.5,1.34q-.326.151-.664.291a22.307,22.307,0,0,1-24.27-4.787c.1.1.194.2.291.3-.109-.113-.221-.225-.33-.338l-.012-.012-.163-.163c-.291-.291-.59-.578-.889-.862-.132-.124-.264-.249-.4-.373s-.245-.225-.369-.334a.233.233,0,0,0-.031-.031c-.12-.109-.241-.213-.361-.322-.221-.194-.443-.388-.668-.578-.256-.221-.52-.439-.78-.648-.035-.031-.078-.062-.116-.1a.189.189,0,0,0-.019-.015l-.008-.008s-.008,0-.015-.012l-.225-.178-.058-.046q-.239-.192-.478-.373a.634.634,0,0,0-.058-.043c-.043-.039-.085-.07-.132-.109,0,0,0,0,0,0l-.093-.07a.692.692,0,0,0-.066-.05l-.4-.3c-.058-.046-.12-.089-.182-.132-.105-.081-.213-.159-.322-.237-.031-.023-.062-.046-.093-.066l-.443-.315c-.074-.05-.143-.1-.217-.148-.043-.035-.085-.062-.128-.093h0c-.361-.249-.726-.489-1.091-.726-.175-.113-.35-.225-.524-.33a.357.357,0,0,0-.089-.054v0h0c-.039-.027-.081-.054-.124-.081l-.268-.163c-.136-.085-.272-.167-.412-.245s-.287-.175-.435-.26c-.023-.012-.05-.031-.081-.046l-.143-.081c-.295-.171-.59-.334-.889-.5l-.019-.012c-.3-.163-.61-.326-.916-.481-.178-.093-.357-.182-.536-.272-.152-.078-.307-.151-.458-.225a.155.155,0,0,0-.035-.019s0,0,0,0c-.116-.058-.229-.113-.346-.167a.054.054,0,0,0-.023-.008c-.276-.132-.555-.26-.831-.384-.163-.074-.322-.143-.485-.213a.051.051,0,0,0-.031-.012.015.015,0,0,0-.015-.008c-.124-.058-.248-.109-.373-.163l-.113-.046c-.019-.008-.039-.019-.058-.027h0c-.089-.039-.178-.074-.268-.109-.05-.023-.1-.043-.148-.062-.066-.027-.132-.054-.2-.078-.132-.054-.264-.109-.4-.159-.081-.031-.163-.066-.249-.1a.5.5,0,0,1-.07-.027c-.241-.089-.481-.182-.726-.268l-.124-.046c-.311-.113-.625-.221-.94-.33l-.384-.128c-.229-.074-.454-.143-.684-.213l-.454-.14c-.287-.085-.575-.167-.862-.249-.225-.062-.45-.124-.675-.178h0a.028.028,0,0,0-.023-.008.014.014,0,0,0-.012,0c-.237-.066-.474-.124-.714-.183-.148-.039-.3-.074-.446-.1-.21-.05-.423-.1-.633-.143s-.4-.089-.606-.128c-.148-.035-.3-.062-.446-.093-.256-.05-.516-.1-.773-.143-.124-.02-.248-.043-.373-.066-.319-.054-.641-.105-.959-.151-.575-.085-1.153-.159-1.728-.221-.217-.027-.435-.046-.648-.07-.33-.031-.664-.058-.994-.081-.1-.012-.2-.019-.3-.023-.307-.023-.617-.043-.924-.054-.338-.019-.68-.031-1.021-.039-.07,0-.136,0-.2,0-.357-.012-.714-.015-1.072-.015h-.027c-.237,0-.47,0-.7.008h-.167c-.085,0-.175,0-.26.008h-.074c-.035,0-.074,0-.109,0l-.373.012c-.12,0-.237.008-.357.015l-.272.012c-.046,0-.093,0-.14.008-.078,0-.159.008-.237.015a.81.81,0,0,0-.1,0c-.163.008-.326.019-.489.031-.019,0-.043,0-.062,0a.958.958,0,0,0-.105.008h0l-.284.023c-.194.012-.388.031-.578.046-.023,0-.046,0-.07.008-.089.008-.175.015-.26.027-.178.015-.353.035-.528.054a0,0,0,0,0,0,0h0a.574.574,0,0,0-.081.008c-.105.008-.21.023-.311.035-.3.035-.6.074-.893.116a.764.764,0,0,0-.093.012.382.382,0,0,0-.066.008l-.155.023a.022.022,0,0,0-.015,0c-.124.015-.248.035-.369.054h-.008l-.284.046c-.113.015-.225.035-.338.054-.291.046-.578.1-.87.155-.151.027-.3.058-.45.085-.12.023-.237.046-.353.074a.107.107,0,0,0-.05.012,1.168,1.168,0,0,0-.171.035c-.066.012-.132.027-.194.039s-.116.027-.171.039h0c-.058.012-.12.027-.175.039-.027,0-.054.012-.078.015-.1.023-.19.043-.284.066l-.2.046-.093.023-.338.081c-.027.008-.054.012-.081.019-.14.035-.28.07-.419.109a1.009,1.009,0,0,0-.109.027l-.05.012,0,0c-.4.1-.8.213-1.192.326-.046.015-.093.027-.14.043s-.109.031-.163.05c0,0,0,0,0,0-.043.012-.089.023-.132.039-.213.062-.423.128-.637.2-.113.031-.225.07-.338.109-.237.074-.47.151-.7.233-.07.023-.136.046-.2.066s-.113.039-.167.058-.109.039-.163.062c-.151.05-.307.105-.454.163l-.159.058c-.046.015-.1.035-.143.054a1.4,1.4,0,0,0-.163.066c-.105.035-.21.074-.315.116-.12.046-.237.093-.353.14-.078.027-.151.058-.225.089l-.2.081q-.309.122-.617.256c-.05.023-.105.043-.155.066s-.081.035-.12.054h0a.513.513,0,0,0-.066.031c-.105.043-.206.089-.311.136-.089.039-.178.078-.264.116-.256.116-.508.233-.761.353-.07.031-.136.066-.2.1-.035.015-.07.035-.105.054-.089.039-.175.081-.26.124-.066.031-.128.062-.19.093a.889.889,0,0,0-.136.07.094.094,0,0,0-.043.023c-.167.078-.334.163-.5.249-.532.272-1.056.559-1.576.854-.182.1-.369.21-.551.319l-.167.1c-.144.085-.291.175-.435.264a.067.067,0,0,0-.027.015c-.05.027-.1.058-.144.085s-.081.05-.12.074c-.019.012-.039.023-.054.031-.043.031-.085.054-.128.085-.182.109-.361.221-.54.338l-2.31-2.31-.023-.023c-.043-.039-.085-.078-.128-.12s-.093-.081-.14-.128c-.089-.081-.178-.167-.264-.252s-.171-.171-.256-.26-.175-.182-.26-.276c-.241-.268-.474-.543-.695-.827s-.439-.586-.641-.889c-.066-.105-.132-.206-.2-.311q-.291-.466-.547-.955c-.225-.435-.431-.885-.613-1.343l0,0c-.085-.229-.171-.462-.249-.695-.043-.116-.078-.237-.116-.357s-.07-.237-.105-.357-.066-.245-.093-.365-.062-.245-.089-.369v0c-.027-.12-.05-.241-.074-.365-.019-.081-.031-.163-.046-.249s-.027-.155-.039-.233-.027-.182-.039-.272c-.019-.124-.035-.252-.046-.38-.008-.058-.015-.116-.019-.178-.008-.093-.019-.19-.023-.284-.019-.233-.031-.466-.039-.7,0-.128,0-.26,0-.392a14.2,14.2,0,0,1,.877-4.927c.081-.213.163-.423.252-.629a14.17,14.17,0,0,1,13.041-8.615c.132,0,.264,0,.392,0,.233.008.47.019.7.039l.284.023c.062,0,.12.012.178.019.128.012.256.027.381.046.089.012.182.023.272.039s.155.023.233.039.167.027.248.046.175.035.264.05l.249.058c.078.015.151.035.225.054s.163.039.241.062a1.915,1.915,0,0,1,.213.058c.21.058.419.12.625.194.074.023.148.046.217.074a12.968,12.968,0,0,1,1.5.629l.326.163c.326.171.645.353.955.552.105.062.21.128.311.2.132.085.264.175.392.268.167.12.334.245.5.373.109.078.21.163.315.249.175.143.346.295.513.443l.012.012c.178.167.353.334.524.5.085.089.171.175.252.264s.167.178.249.268a.133.133,0,0,1,.023.023l11.2,11.2c.143.128.28.256.419.392,0-.008,0-.012,0-.019-.023-.152-.043-.3-.062-.458-.027-.221-.046-.443-.062-.668-.012-.151-.019-.3-.027-.454v-.039c-.008-.178-.012-.361-.012-.54a14.17,14.17,0,0,1,14.171-14.171c.245,0,.489.008.73.019.116,0,.229.012.346.019a.023.023,0,0,0,.015,0l.284.023c.062,0,.12.012.178.019.128.012.252.027.381.046.074.008.148.019.221.031.178.027.357.058.532.093.093.015.19.035.284.058q.227.047.454.105c.093.023.187.046.28.074.272.07.536.148.8.241.093.031.19.062.284.1.14.046.28.1.415.155.21.085.423.175.629.268.019.008.039.015.054.023.113.054.221.105.33.159l.33.163c.225.116.443.237.66.369.1.062.2.12.295.183s.206.128.311.2c.132.085.264.175.392.268.167.12.334.245.5.373.109.078.21.163.315.249q.262.221.512.443l.012.012c.178.167.353.334.524.5.085.089.171.175.252.264s.167.178.249.268a.122.122,0,0,1,.023.023Z" transform="translate(-100.985 -181.43)" fill="url(#linear-gradient-12)"/>
    <circle id="Ellipse_16" data-name="Ellipse 16" cx="14.171" cy="14.171" r="14.171" transform="translate(38.875 128.28)" fill="url(#linear-gradient-13)"/>
    <circle id="Ellipse_17" data-name="Ellipse 17" cx="10.419" cy="10.419" r="10.419" transform="translate(42.627 132.032)" fill="url(#linear-gradient-14)"/>
    <path id="Path_314" data-name="Path 314" d="M180.557,337.11l-7.309-7.309a9.4,9.4,0,1,0-13.291,13.291l7.309,7.309A14.17,14.17,0,0,0,180.557,337.11Z" transform="translate(-113.366 -193.807)" fill="url(#linear-gradient-15)"/>
    <circle id="Ellipse_18" data-name="Ellipse 18" cx="9.405" cy="9.405" r="9.405" transform="translate(43.641 133.047)" fill="url(#linear-gradient-16)"/>
    <circle id="Ellipse_19" data-name="Ellipse 19" cx="14.171" cy="14.171" r="14.171" transform="translate(75.092 128.28)" fill="url(#linear-gradient-17)"/>
    <circle id="Ellipse_20" data-name="Ellipse 20" cx="10.419" cy="10.419" r="10.419" transform="translate(78.844 132.032)" fill="url(#linear-gradient-18)"/>
    <path id="Path_315" data-name="Path 315" d="M310.843,337.11l-7.309-7.309a9.4,9.4,0,1,0-13.291,13.291l7.309,7.309A14.17,14.17,0,0,0,310.843,337.11Z" transform="translate(-207.437 -193.807)" fill="url(#linear-gradient-19)"/>
    <circle id="Ellipse_21" data-name="Ellipse 21" cx="9.405" cy="9.405" r="9.405" transform="translate(79.858 133.047)" fill="url(#linear-gradient-20)"/>
    <path id="Path_316" data-name="Path 316" d="M316.572,174.09a5.57,5.57,0,0,0-.581.031c-.034,0-.067.009-.1.014l-.041.006c-.144.019-.288.039-.428.069-.03.006-.059.014-.088.022l-.04.01c-.143.034-.285.07-.423.115l-.1.035c-.147.051-.293.105-.436.168l-.059.029c-.152.069-.3.144-.474.244a4.861,4.861,0,0,0-.418.269l-.034.023a5.527,5.527,0,0,0-.821.72c-2.1,2.1-12.5,12.492-12.793,12.8h0a5.535,5.535,0,0,0,8.088,7.557l12.523-12.523a5.488,5.488,0,0,0,1.764-4.047A5.549,5.549,0,0,0,316.572,174.09Z" transform="translate(-215.345 -83.507)" fill="url(#linear-gradient-21)"/>
    <path id="Path_317" data-name="Path 317" d="M362.817,275.595a21.333,21.333,0,0,1-10.343,3.82l-5.455-5.455a5.08,5.08,0,0,1-.66-.753l0,0c-.093-.132-.178-.264-.26-.4,0-.008-.012-.019-.015-.027-.074-.128-.143-.264-.206-.4a.366.366,0,0,0-.027-.058c-.054-.128-.1-.256-.152-.392a.75.75,0,0,0-.031-.085c-.039-.124-.074-.256-.1-.384-.012-.039-.023-.078-.031-.116-.027-.124-.046-.256-.062-.384-.008-.043-.015-.085-.019-.128a4.724,4.724,0,0,1-.027-.524,5.01,5.01,0,0,1,8.677-3.42Z" transform="translate(-249.409 -149.352)" fill="url(#linear-gradient-22)"/>
    <path id="Path_318" data-name="Path 318" d="M360.927,218.444a5.567,5.567,0,0,0-.581.031c-.034,0-.067.009-.1.014l-.041.006c-.144.019-.288.039-.428.069-.03.006-.059.014-.088.022l-.04.01c-.143.034-.285.07-.423.115l-.1.035c-.147.051-.293.105-.436.168l-.059.029c-.152.069-.3.144-.474.244a4.864,4.864,0,0,0-.418.269l-.034.023a5.527,5.527,0,0,0-.821.72c-2.1,2.1-12.5,12.492-12.793,12.8h0a5.535,5.535,0,0,0,8.088,7.557l12.523-12.523a5.488,5.488,0,0,0,1.764-4.047A5.549,5.549,0,0,0,360.927,218.444Z" transform="translate(-247.371 -115.532)" fill="url(#linear-gradient-23)"/>
    <path id="Path_319" data-name="Path 319" d="M404.046,227.977a21.369,21.369,0,0,1-3.793,10.366c-3.653-3.646-8.677-8.674-8.677-8.674a4.9,4.9,0,0,1-.66-.753,0,0,0,0,1,0,0,4.755,4.755,0,0,1-.26-.4.139.139,0,0,1-.015-.027c-.074-.128-.143-.264-.206-.4a.224.224,0,0,0-.027-.054c-.054-.128-.105-.26-.151-.4-.008-.027-.019-.054-.031-.085a3.9,3.9,0,0,1-.1-.384c-.012-.039-.023-.074-.031-.113-.027-.128-.046-.256-.062-.388-.008-.043-.015-.085-.019-.128a4.7,4.7,0,0,1-.027-.524,5.01,5.01,0,0,1,8.677-3.42Z" transform="translate(-281.58 -117.373)" fill="url(#linear-gradient-24)"/>
    <path id="Path_320" data-name="Path 320" d="M400.518,224.448l-1.845-1.84A5.007,5.007,0,0,0,390,226.028a4.266,4.266,0,0,0,.028.523c0,.046.011.085.018.128.018.132.036.26.061.388.011.039.021.075.032.114.028.132.064.26.1.384l.032.085q.069.2.15.395c.011.018.018.036.028.053a3.848,3.848,0,0,0,.2.4l.018.028a4.354,4.354,0,0,0,.26.4s0,0,0,.007a5.293,5.293,0,0,0,.658.751l3.768,3.767,3.411-3.41a5.53,5.53,0,0,0,1.92-3.99A5.319,5.319,0,0,0,400.518,224.448Z" transform="translate(-281.593 -117.386)" fill="url(#linear-gradient-25)"/>
    <path id="Path_321" data-name="Path 321" d="M350.5,265.344a5.015,5.015,0,0,0-5.013,5.017,5.163,5.163,0,0,0,.025.526l.021.125c.018.132.036.26.061.388.011.039.021.075.032.114a3.384,3.384,0,0,0,.1.384.892.892,0,0,0,.032.085c.046.135.093.267.15.395.011.018.018.036.028.053a3.854,3.854,0,0,0,.2.4l.018.028a4.349,4.349,0,0,0,.26.4s0,0,0,.007a5.077,5.077,0,0,0,.658.751l2.045,2.044a4.084,4.084,0,0,0,1.284.107,5.634,5.634,0,0,0,4.042-1.937l3.5-3.5-3.793-3.791A4.988,4.988,0,0,0,350.5,265.344Z" transform="translate(-249.455 -149.396)" fill="url(#linear-gradient-26)"/>
    <path id="Path_322" data-name="Path 322" d="M359.408,197.766a5.007,5.007,0,1,0,6.829-7.325L354.095,178.3a5.01,5.01,0,0,0-8.677,3.419,5.053,5.053,0,0,0,.028.526c0,.043.014.085.019.128.017.13.035.26.062.386.008.039.021.077.03.115.031.129.063.258.1.383.009.029.022.058.032.086.046.133.1.265.151.393.008.019.018.036.026.055.063.138.13.272.2.4l.016.026q.12.208.259.4l0,.005a5.053,5.053,0,0,0,.66.751S359.295,197.665,359.408,197.766Z" transform="translate(-249.404 -85.394)" fill="url(#linear-gradient-27)"/>
    <circle id="Ellipse_22" data-name="Ellipse 22" cx="5.015" cy="5.015" r="5.015" transform="translate(96.013 115.931)" fill="url(#linear-gradient-28)"/>
    <path id="Path_323" data-name="Path 323" d="M315.119,242.056a5.007,5.007,0,1,0,6.829-7.325l-12.142-12.142a5.01,5.01,0,0,0-8.677,3.419,5.052,5.052,0,0,0,.028.526c0,.043.014.085.019.128.017.13.035.26.062.386.008.039.021.077.03.115.031.129.063.258.1.383.009.029.022.058.032.086.046.133.1.265.151.393.008.019.018.036.026.055.063.138.13.272.2.4l.016.026q.12.208.259.4l0,.005a5.055,5.055,0,0,0,.66.751S315.006,241.955,315.119,242.056Z" transform="translate(-217.426 -117.373)" fill="url(#linear-gradient-29)"/>
    <path id="Path_324" data-name="Path 324" d="M356.028,180.23,354.1,178.3a5.007,5.007,0,0,0-8.674,3.419,4.267,4.267,0,0,0,.028.523c0,.046.011.085.018.128.018.132.036.26.061.388.011.039.021.075.032.114.028.132.064.26.1.384l.032.085q.069.2.15.395c.011.018.018.036.028.053a3.855,3.855,0,0,0,.2.4l.018.028a4.358,4.358,0,0,0,.26.4s0,0,0,.007a5.29,5.29,0,0,0,.658.751l3.793,3.793,3.428-3.438a5.651,5.651,0,0,0,1.94-3.959A5.5,5.5,0,0,0,356.028,180.23Z" transform="translate(-249.406 -85.393)" fill="url(#linear-gradient-30)"/>
    <path id="Path_325" data-name="Path 325" d="M306.146,220.989a5.015,5.015,0,0,0-5.013,5.017,5.164,5.164,0,0,0,.025.526l.021.125c.018.132.036.26.061.388.011.039.021.075.032.114a3.388,3.388,0,0,0,.1.384.889.889,0,0,0,.032.085c.046.135.093.267.15.395.011.018.018.036.028.053a3.854,3.854,0,0,0,.2.4l.018.028a4.358,4.358,0,0,0,.26.4s0,0,0,.007a5.079,5.079,0,0,0,.658.751s1.167,1.176,2.038,2.047a6.019,6.019,0,0,0,1.942.044,5.5,5.5,0,0,0,3.391-1.9l3.494-3.49-3.785-3.785A4.988,4.988,0,0,0,306.146,220.989Z" transform="translate(-217.429 -117.37)" fill="url(#linear-gradient-31)"/>
    <circle id="Ellipse_23" data-name="Ellipse 23" cx="5.015" cy="5.015" r="5.015" transform="translate(96.013 91.31)" fill="url(#linear-gradient-32)"/>
    <circle id="Ellipse_24" data-name="Ellipse 24" cx="5.015" cy="5.015" r="5.015" transform="translate(83.702 103.621)" fill="url(#linear-gradient-33)"/>
    <circle id="Ellipse_25" data-name="Ellipse 25" cx="5.015" cy="5.015" r="5.015" transform="translate(108.397 103.621)" fill="url(#linear-gradient-34)"/>
    <g id="Group_115" data-name="Group 115" transform="translate(61.274 122.247)">
      <path id="Path_326" data-name="Path 326" d="M226.47,289.865v.253a1.859,1.859,0,0,1-1.859,1.859H222.3a1.859,1.859,0,0,1-1.859-1.859v-.253a1.859,1.859,0,0,1,1.859-1.859h2.313A1.859,1.859,0,0,1,226.47,289.865Z" transform="translate(-220.438 -288.006)" fill="url(#linear-gradient-35)"/>
      <path id="Path_327" data-name="Path 327" d="M275.868,289.865v.253a1.859,1.859,0,0,1-1.859,1.859H271.7a1.859,1.859,0,0,1-1.859-1.859v-.253a1.859,1.859,0,0,1,1.859-1.859h2.313A1.859,1.859,0,0,1,275.868,289.865Z" transform="translate(-256.105 -288.006)" fill="url(#linear-gradient-36)"/>
    </g>
  </g>
</svg>
